<svg width="24" height="24" viewBox="0 0 24 24" fill="none" xmlns="http://www.w3.org/2000/svg">
<g id="Property 1=Static">
<g id="Vector">
<path d="M5.96484 2H17.9648C20.174 2 21.9648 3.79086 21.9648 6V18C21.9648 20.2091 20.174 22 17.9648 22H5.96484C3.75571 22 1.96484 20.2091 1.96484 18V6C1.96484 3.79086 3.7557 2 5.96484 2Z" fill="#F5F5FF" fill-opacity="0.333333"/>
<path d="M5.96484 2.5H17.9648C19.8978 2.5 21.4648 4.067 21.4648 6V18C21.4648 19.933 19.8978 21.5 17.9648 21.5H5.96484C4.03185 21.5 2.46484 19.933 2.46484 18V6C2.46484 4.067 4.03185 2.5 5.96484 2.5Z" stroke="#3B4051" stroke-opacity="0.1"/>
</g>
</g>
</svg>
