<svg width="24" height="24" viewBox="0 0 24 24" fill="none" xmlns="http://www.w3.org/2000/svg">
<g id="Property 1=No">
<path id="Vector" d="M4 5L20 19M14 13.9566C13.4692 14.3723 12.7684 14.625 12 14.625C10.3431 14.625 9 13.4497 9 12C9 11.3277 9.28885 10.7144 9.76389 10.25M19.6078 15.1567C20.1791 14.7215 20.6902 14.2837 21.1303 13.8785C22.2899 12.811 22.2899 11.189 21.1303 10.1215C19.1745 8.32092 15.8155 5.875 12 5.875C11.1086 5.875 10.2422 6.00849 9.4127 6.23606M6.5 7.45296C5.04144 8.26763 3.79764 9.26719 2.86971 10.1215C1.7101 11.189 1.7101 12.811 2.86971 13.8785C4.82549 15.6791 8.18448 18.125 12 18.125C13.8681 18.125 15.6267 17.5387 17.1648 16.7289" stroke="#3B4051" stroke-width="1.5" stroke-linecap="round"/>
</g>
</svg>
