<svg width="152" height="24" viewBox="0 0 152 24" fill="none" xmlns="http://www.w3.org/2000/svg">
  <path d="M97 12C97 18.5846 91.6462 24 85 24C78.4154 24 73 18.5846 73 12C73 5.41538 78.3538 0 84.9385 0C91.6462 0 97 5.41538 97 12Z" fill="#F9B50B"/>
  <path d="M80.9385 12.0615C80.9385 11.2 80.8154 10.3385 80.6923 9.53846H73.3077C73.3692 9.10769 73.4923 8.73846 73.6154 8.24615H80.2C80.0769 7.81538 79.8923 7.38462 79.7077 6.95385H74.1077C74.2923 6.52308 74.5385 6.15385 74.7846 5.66154H79.0308C78.7846 5.23077 78.4769 4.8 78.1077 4.36923H75.7692C76.1385 3.93846 76.5077 3.56923 77 3.13846C74.9077 1.16923 72.0769 0 68.9385 0C62.4154 0.184615 57 5.41538 57 12C57 18.5846 62.3538 24 69 24C72.1385 24 74.9077 22.7692 77.0615 20.8615C77.4923 20.4923 77.8615 20.0615 78.2923 19.5692H75.8308C75.5231 19.2 75.2154 18.7692 74.9692 18.3385H79.1538C79.4 17.9692 79.6462 17.5385 79.8308 17.0462H74.2308C74.0462 16.6769 73.8615 16.2462 73.7385 15.7538H80.3231C80.6923 14.6462 80.9385 13.4154 80.9385 12.0615Z" fill="#C8191C"/>
  <path d="M73.2446 15.0766L73.4292 13.9689C73.3677 13.9689 73.2446 14.0304 73.1215 14.0304C72.6907 14.0304 72.6292 13.7843 72.6907 13.6612L73.06 11.4458H73.7369L73.9215 10.215H73.3061L73.4292 9.47656H72.1369C72.1369 9.47656 71.3984 13.6612 71.3984 14.1535C71.3984 14.8919 71.8292 15.2612 72.4446 15.2612C72.8138 15.2612 73.1215 15.1381 73.2446 15.0766Z" fill="white"/>
  <path d="M73.6797 13.0456C73.6797 14.8302 74.9105 15.261 75.8951 15.261C76.8181 15.261 77.2489 15.0764 77.2489 15.0764L77.4951 13.8456C77.4951 13.8456 76.8181 14.1533 76.1412 14.1533C74.7258 14.1533 74.972 13.1072 74.972 13.1072H77.5566C77.5566 13.1072 77.7412 12.3072 77.7412 11.9379C77.7412 11.1379 77.3105 10.0918 75.8951 10.0918C74.6643 10.0302 73.6797 11.4456 73.6797 13.0456ZM75.8951 11.1995C76.572 11.1995 76.4489 11.9995 76.4489 12.061H75.0335C75.0951 11.9995 75.2181 11.1995 75.8951 11.1995Z" fill="white"/>
  <path d="M83.953 15.0767L84.1992 13.6613C84.1992 13.6613 83.5838 13.969 83.0915 13.969C82.2299 13.969 81.7992 13.2921 81.7992 12.4921C81.7992 10.9536 82.5376 10.1536 83.4607 10.1536C84.0761 10.1536 84.6299 10.5229 84.6299 10.5229L84.8145 9.16902C84.8145 9.16902 84.0761 8.86133 83.3376 8.86133C81.8607 8.86133 80.4453 10.1536 80.4453 12.5536C80.4453 14.1536 81.1838 15.1998 82.7222 15.1998C83.2761 15.2613 83.953 15.0767 83.953 15.0767Z" fill="white"/>
  <path d="M66.2906 10.0312C65.4291 10.0312 64.7522 10.2774 64.7522 10.2774L64.5675 11.3851C64.5675 11.3851 65.1214 11.1389 65.9829 11.1389C66.4137 11.1389 66.7829 11.2005 66.7829 11.5697C66.7829 11.8159 66.7214 11.8774 66.7214 11.8774H66.1675C65.0599 11.8774 63.8906 12.3082 63.8906 13.7851C63.8906 14.9543 64.6291 15.2005 65.1214 15.2005C65.9829 15.2005 66.4137 14.6466 66.4752 14.6466L66.4137 15.1389H67.4599L67.9522 11.6313C67.9522 10.0928 66.7214 10.0312 66.2906 10.0312ZM66.5368 12.862C66.5368 13.0466 66.4137 14.0928 65.6752 14.0928C65.306 14.0928 65.1829 13.7851 65.1829 13.6005C65.1829 13.2928 65.3675 12.862 66.3522 12.862C66.4752 12.862 66.5368 12.862 66.5368 12.862Z" fill="white"/>
  <path d="M69.1869 15.1995C69.4946 15.1995 71.0946 15.2611 71.0946 13.538C71.0946 11.938 69.5561 12.2457 69.5561 11.6303C69.5561 11.3226 69.8023 11.1995 70.2331 11.1995C70.4177 11.1995 71.0946 11.2611 71.0946 11.2611L71.2792 10.0918C71.2792 10.0918 70.8484 9.96875 70.0484 9.96875C69.1254 9.96875 68.1407 10.338 68.1407 11.6303C68.1407 13.1072 69.7407 12.9841 69.7407 13.538C69.7407 13.9072 69.31 13.9688 69.0023 13.9688C68.4484 13.9688 67.8331 13.7841 67.8331 13.7841L67.6484 14.9534C67.7715 15.0764 68.1407 15.1995 69.1869 15.1995Z" fill="white"/>
  <path d="M94.537 9.04688L94.2909 10.77C94.2909 10.77 93.7986 10.1546 93.0601 10.1546C91.8909 10.1546 90.9062 11.57 90.9062 13.2315C90.9062 14.2776 91.3986 15.3238 92.5063 15.3238C93.2447 15.3238 93.737 14.8315 93.737 14.8315L93.6755 15.2623H94.9678L95.8909 9.16995L94.537 9.04688ZM93.9216 12.37C93.9216 13.0469 93.6139 13.97 92.8755 13.97C92.4447 13.97 92.1986 13.6007 92.1986 12.9238C92.1986 11.8776 92.6293 11.2623 93.2447 11.2623C93.6755 11.3238 93.9216 11.6315 93.9216 12.37Z" fill="white"/>
  <path d="M59.3401 15.1392L60.0786 10.5853L60.2017 15.1392H61.0632L62.7248 10.5853L62.0478 15.1392H63.4017L64.4478 9.04688H62.3555L61.0632 12.8007L61.0017 9.04688H59.1555L58.1094 15.1392H59.3401Z" fill="white"/>
  <path d="M79.0326 15.1389C79.4018 13.0466 79.4633 11.3235 80.3864 11.6312C80.5095 10.8312 80.6941 10.462 80.8172 10.1543H80.571C80.0172 10.1543 79.5249 10.8928 79.5249 10.8928L79.648 10.2158H78.4172L77.6172 15.1389H79.0326Z" fill="white"/>
  <path d="M86.9078 10.0312C86.0463 10.0312 85.3693 10.2774 85.3693 10.2774L85.1847 11.3851C85.1847 11.3851 85.7386 11.1389 86.6001 11.1389C87.0309 11.1389 87.4001 11.2005 87.4001 11.5697C87.4001 11.8159 87.3386 11.8774 87.3386 11.8774H86.7847C85.677 11.8774 84.5078 12.3082 84.5078 13.7851C84.5078 14.9543 85.2463 15.2005 85.7386 15.2005C86.6001 15.2005 87.0309 14.6466 87.0924 14.6466L87.0309 15.1389H88.2001L88.6924 11.6313C88.6924 10.0928 87.3386 10.0312 86.9078 10.0312ZM87.2155 12.862C87.2155 13.0466 87.0924 14.0928 86.354 14.0928C85.9847 14.0928 85.8617 13.7851 85.8617 13.6005C85.8617 13.2928 86.0463 12.862 87.0309 12.862C87.154 12.862 87.154 12.862 87.2155 12.862Z" fill="white"/>
  <path d="M89.6771 15.1389C90.0463 13.0466 90.1079 11.3235 91.0309 11.6312C91.154 10.8312 91.3386 10.462 91.4617 10.1543H91.2156C90.6617 10.1543 90.1694 10.8928 90.1694 10.8928L90.2925 10.2158H89.0617L88.2617 15.1389H89.6771Z" fill="white"/>
  <path d="M148.262 5.43555H145.616C144.816 5.43555 144.201 5.6817 143.831 6.4817L138.785 17.9894H142.354C142.354 17.9894 142.97 16.4509 143.093 16.0817C143.462 16.0817 146.97 16.0817 147.462 16.0817C147.585 16.5125 147.893 17.9279 147.893 17.9279H151.093L148.262 5.43555ZM144.077 13.4971C144.385 12.7586 145.431 9.98939 145.431 9.98939C145.431 10.0509 145.739 9.25093 145.862 8.82016L146.108 9.92785C146.108 9.92785 146.785 12.9432 146.908 13.5586H144.077V13.4971Z" fill="#3362AB"/>
  <path d="M139.035 13.8654C139.035 16.45 136.696 18.1731 133.065 18.1731C131.527 18.1731 130.05 17.8654 129.25 17.4962L129.742 14.6654L130.173 14.85C131.281 15.3423 132.019 15.5269 133.373 15.5269C134.358 15.5269 135.404 15.1577 135.404 14.2962C135.404 13.7423 134.973 13.3731 133.619 12.7577C132.327 12.1423 130.604 11.1577 130.604 9.37308C130.604 6.91154 133.004 5.25 136.388 5.25C137.681 5.25 138.788 5.49615 139.465 5.80385L138.973 8.51154L138.727 8.26538C138.112 8.01923 137.312 7.77308 136.142 7.77308C134.85 7.83462 134.235 8.38846 134.235 8.88077C134.235 9.43462 134.973 9.86538 136.142 10.4192C138.112 11.3423 139.035 12.3885 139.035 13.8654Z" fill="#3362AB"/>
  <path d="M109 5.55865L109.062 5.3125H114.354C115.092 5.3125 115.646 5.55865 115.831 6.35865L117 11.8971C115.831 8.94327 113.123 6.54327 109 5.55865Z" fill="#F9B50B"/>
  <path d="M124.444 5.43459L119.091 17.9269H115.46L112.383 7.46535C114.598 8.88074 116.444 11.0961 117.121 12.6346L117.491 13.9269L120.814 5.37305H124.444V5.43459Z" fill="#3362AB"/>
  <path d="M125.865 5.37305H129.249L127.096 17.9269H123.711L125.865 5.37305Z" fill="#3362AB"/>
  <path d="M40.2559 5H31.6172C32.1204 7.85161 34.8882 10.5355 37.9075 10.5355H44.7849C44.8688 10.2839 44.8688 9.86452 44.8688 9.6129C44.8688 7.09677 42.772 5 40.2559 5Z" fill="url(#paint0_linear_171_2)"/>
  <path d="M32.375 11.0391V18.0003H36.5685V14.31H40.2589C42.2718 14.31 44.0331 12.8842 44.6202 11.0391H32.375Z" fill="#4FAD50"/>
  <path d="M17.6133 5V17.9161H21.3036C21.3036 17.9161 22.2262 17.9161 22.7294 16.9936C25.2455 12.0452 26.0004 10.5355 26.0004 10.5355H26.5036V17.9161H30.6972V5H27.0068C27.0068 5 26.0843 5.08388 25.581 5.92259C23.4843 10.2 22.3101 12.3806 22.3101 12.3806H21.8068V5H17.6133Z" fill="#4FAD50"/>
  <path d="M0 18.0001V5.08398H4.19355C4.19355 5.08398 5.36775 5.08398 6.03872 6.92914C7.71614 11.7937 7.88389 12.4646 7.88389 12.4646C7.88389 12.4646 8.21936 11.2904 9.72904 6.92914C10.4 5.08398 11.5742 5.08398 11.5742 5.08398H15.7678V18.0001H11.5742V11.0388H11.071L8.7226 18.0001H6.87743L4.52905 11.0388H4.02582V18.0001H0Z" fill="#4FAD50"/>
  <defs>
    <linearGradient id="paint0_linear_171_2" x1="31.6023" y1="7.80742" x2="44.8391" y2="7.80742" gradientUnits="userSpaceOnUse">
      <stop stop-color="#27B1E6"/>
      <stop offset="1" stop-color="#148ACA"/>
    </linearGradient>
  </defs>
</svg>
