<svg width="16" height="16" viewBox="0 0 16 16" fill="none" xmlns="http://www.w3.org/2000/svg">
<g id="Map pin 16 px">
<path id="Vector" d="M8.70711 14.1117C8.31659 14.5022 7.68342 14.5022 7.2929 14.1117L3.75734 10.5761C2.91823 9.73699 2.34679 8.66789 2.11529 7.50401C1.88378 6.34013 2.0026 5.13373 2.45673 4.03738C2.91086 2.94103 3.6799 2.00396 4.66659 1.34467C5.65328 0.685388 6.81332 0.333496 8 0.333496C9.18669 0.333496 10.3467 0.685388 11.3334 1.34467C12.3201 2.00396 13.0891 2.94103 13.5433 4.03738C13.9974 5.13373 14.1162 6.34013 13.8847 7.50401C13.6532 8.66789 13.0818 9.73699 12.2427 10.5761L8.70711 14.1117ZM11.3 9.63344C11.9526 8.98078 12.397 8.14926 12.577 7.24403C12.7571 6.3388 12.6646 5.40051 12.3114 4.54781C11.9582 3.69512 11.36 2.96632 10.5926 2.45356C9.82519 1.9408 8.92296 1.66711 8 1.66711C7.07704 1.66711 6.17481 1.9408 5.40739 2.45356C4.63997 2.96632 4.04183 3.69512 3.68861 4.54781C3.33539 5.40051 3.24294 6.3388 3.42297 7.24403C3.603 8.14926 4.04741 8.98078 4.7 9.63344L7.2929 12.2263C7.68342 12.6169 8.31658 12.6169 8.70711 12.2263L11.3 9.63344ZM8 7.66678C7.64638 7.66678 7.30724 7.5263 7.05719 7.27625C6.80715 7.0262 6.66667 6.68707 6.66667 6.33344C6.66667 5.97982 6.80715 5.64068 7.05719 5.39064C7.30724 5.14059 7.64638 5.00011 8 5.00011C8.35362 5.00011 8.69276 5.14059 8.94281 5.39064C9.19286 5.64068 9.33334 5.97982 9.33334 6.33344C9.33334 6.68707 9.19286 7.0262 8.94281 7.27625C8.69276 7.5263 8.35362 7.66678 8 7.66678Z" fill="#3B4051"/>
</g>
</svg>
