<svg width="48" height="55" viewBox="0 0 48 55" fill="none" xmlns="http://www.w3.org/2000/svg">
  <mask id="path-1-inside-1_820_5094" fill="white">
    <path fill-rule="evenodd" clip-rule="evenodd" d="M16 0C7.16344 0 0 7.16344 0 16V32C0 40.8366 7.16344 48 16 48H17.3726L23.2929 53.9203C23.6834 54.3108 24.3166 54.3108 24.7071 53.9203L30.6274 48H32C40.8366 48 48 40.8366 48 32V16C48 7.16344 40.8366 0 32 0H16Z"/>
  </mask>
  <path fill-rule="evenodd" clip-rule="evenodd" d="M16 0C7.16344 0 0 7.16344 0 16V32C0 40.8366 7.16344 48 16 48H17.3726L23.2929 53.9203C23.6834 54.3108 24.3166 54.3108 24.7071 53.9203L30.6274 48H32C40.8366 48 48 40.8366 48 32V16C48 7.16344 40.8366 0 32 0H16Z" fill="white"/>
  <path d="M17.3726 48L18.0797 47.2929L17.7868 47H17.3726V48ZM23.2929 53.9203L22.5858 54.6274L22.5858 54.6274L23.2929 53.9203ZM24.7071 53.9203L25.4142 54.6274L25.4142 54.6274L24.7071 53.9203ZM30.6274 48V47H30.2132L29.9203 47.2929L30.6274 48ZM1 16C1 7.71573 7.71573 1 16 1V-1C6.61116 -1 -1 6.61116 -1 16H1ZM1 32V16H-1V32H1ZM16 47C7.71573 47 1 40.2843 1 32H-1C-1 41.3888 6.61116 49 16 49V47ZM17.3726 47H16V49H17.3726V47ZM24 53.2132L18.0797 47.2929L16.6655 48.7071L22.5858 54.6274L24 53.2132ZM24 53.2132H24L22.5858 54.6274C23.3668 55.4085 24.6332 55.4085 25.4142 54.6274L24 53.2132ZM29.9203 47.2929L24 53.2132L25.4142 54.6274L31.3345 48.7071L29.9203 47.2929ZM32 47H30.6274V49H32V47ZM47 32C47 40.2843 40.2843 47 32 47V49C41.3888 49 49 41.3888 49 32H47ZM47 16V32H49V16H47ZM32 1C40.2843 1 47 7.71573 47 16H49C49 6.61116 41.3888 -1 32 -1V1ZM16 1H32V-1H16V1Z" fill="#3B4051" fill-opacity="0.3" mask="url(#path-1-inside-1_820_5094)"/>
  <g clip-path="url(#clip0_820_5094)">
    <mask id="mask0_820_5094" style="mask-type:luminance" maskUnits="userSpaceOnUse" x="13" y="17" width="25" height="20">
      <path d="M30.3759 18.2631L15.4826 26.8607C14.3423 27.519 13.5102 28.6033 13.1693 29.8751C12.8284 31.1469 13.0067 32.502 13.6649 33.6423C14.3232 34.7826 15.4075 35.6148 16.6793 35.9557C17.9511 36.2966 19.3062 36.1183 20.4465 35.46L35.3414 26.8607C35.906 26.5347 36.4008 26.1007 36.7975 25.5834C37.1943 25.0661 37.4853 24.4758 37.654 23.8461C37.8226 23.2163 37.8656 22.5596 37.7804 21.9132C37.6952 21.2669 37.4835 20.6437 37.1575 20.0792C36.8315 19.5146 36.3974 19.0198 35.8801 18.6231C35.3629 18.2263 34.7725 17.9353 34.1428 17.7666C33.5131 17.598 32.8563 17.555 32.21 17.6402C31.5637 17.7254 30.9404 17.9371 30.3759 18.2631Z" fill="white"/>
    </mask>
    <g mask="url(#mask0_820_5094)">
      <path d="M31.9683 6.23647L3.96484 22.4043L18.8515 48.1887L46.855 32.0209L31.9683 6.23647Z" fill="url(#paint0_linear_820_5094)"/>
    </g>
    <mask id="mask1_820_5094" style="mask-type:luminance" maskUnits="userSpaceOnUse" x="13" y="9" width="25" height="19">
      <path d="M13.6621 11.4807C13.0061 12.6216 12.8289 13.976 13.1693 15.2473C13.5096 16.5187 14.3398 17.6033 15.4781 18.2639L30.3714 26.8615C31.5115 27.52 32.8665 27.6986 34.1383 27.358C35.4101 27.0175 36.4945 26.1856 37.153 25.0455C37.8115 23.9054 37.99 22.5504 37.6495 21.2786C37.3089 20.0068 36.4771 18.9224 35.3369 18.2639L20.442 9.66463C19.8772 9.33848 19.2537 9.12694 18.607 9.04212C17.9604 8.9573 17.3034 9.00087 16.6736 9.17033C16.0438 9.33979 15.4536 9.63181 14.9369 10.0297C14.4201 10.4276 13.9869 10.9234 13.6621 11.489" fill="white"/>
    </mask>
    <g mask="url(#mask1_820_5094)">
      <path d="M18.8515 -2.36253L3.96484 23.4219L31.9683 39.5897L46.855 13.8053L18.8515 -2.36253Z" fill="url(#paint1_linear_820_5094)"/>
    </g>
    <mask id="mask2_820_5094" style="mask-type:luminance" maskUnits="userSpaceOnUse" x="13" y="9" width="10" height="28">
      <path d="M13 13.9678V31.1647C13 32.4812 13.523 33.7438 14.4539 34.6747C15.3848 35.6056 16.6474 36.1286 17.9639 36.1286C19.2804 36.1286 20.543 35.6056 21.4739 34.6747C22.4048 33.7438 22.9277 32.4812 22.9277 31.1647V13.9678C22.9277 12.6513 22.4048 11.3887 21.4739 10.4578C20.543 9.52688 19.2804 9.00391 17.9639 9.00391C16.6474 9.00391 15.3848 9.52688 14.4539 10.4578C13.523 11.3887 13 12.6513 13 13.9678Z" fill="white"/>
    </mask>
    <g mask="url(#mask2_820_5094)">
      <path d="M22.9277 8.99805H13V36.1244H22.9277V8.99805Z" fill="url(#paint2_linear_820_5094)"/>
    </g>
  </g>
  <defs>
    <linearGradient id="paint0_linear_820_5094" x1="13.9648" y1="34.1567" x2="37.4687" y2="20.5866" gradientUnits="userSpaceOnUse">
      <stop stop-color="#4394D0"/>
      <stop offset="0.16" stop-color="#4394D0"/>
      <stop offset="0.66" stop-color="#05509E"/>
      <stop offset="1" stop-color="#05509E"/>
    </linearGradient>
    <linearGradient id="paint1_linear_820_5094" x1="13.3335" y1="11.9993" x2="36.8374" y2="25.5693" gradientUnits="userSpaceOnUse">
      <stop stop-color="#EB1C3C"/>
      <stop offset="0.15" stop-color="#E71D3E"/>
      <stop offset="0.28" stop-color="#DD1F42"/>
      <stop offset="0.41" stop-color="#CA234A"/>
      <stop offset="0.54" stop-color="#B12955"/>
      <stop offset="0.66" stop-color="#903163"/>
      <stop offset="0.78" stop-color="#673A74"/>
      <stop offset="0.89" stop-color="#384588"/>
      <stop offset="1" stop-color="#05509E"/>
    </linearGradient>
    <linearGradient id="paint2_linear_820_5094" x1="17.6624" y1="36.1588" x2="17.6624" y2="9.01874" gradientUnits="userSpaceOnUse">
      <stop stop-color="#F89820"/>
      <stop offset="0.13" stop-color="#F78B23"/>
      <stop offset="0.38" stop-color="#F3672B"/>
      <stop offset="0.71" stop-color="#ED2F38"/>
      <stop offset="0.82" stop-color="#EB1C3C"/>
      <stop offset="1" stop-color="#EB1C3C"/>
    </linearGradient>
    <clipPath id="clip0_820_5094">
      <rect width="25" height="27.7027" fill="white" transform="translate(13 9)"/>
    </clipPath>
  </defs>
</svg>
