<svg width="58" height="32" viewBox="0 0 58 32" fill="none" xmlns="http://www.w3.org/2000/svg">
<g id="&#208;&#161;&#208;&#187;&#208;&#190;&#208;&#185;_1" clip-path="url(#clip0_820_5900)">
<path id="Vector" fill-rule="evenodd" clip-rule="evenodd" d="M11.0729 17.5938L15.0249 20.171V24.9508L11.0547 32.0009L11.0729 17.5938Z" fill="#62B22F"/>
<path id="Vector_2" fill-rule="evenodd" clip-rule="evenodd" d="M7.79512 15.5566L11.738 17.8224L0.03125 24.8724L3.85227 17.977L7.79512 15.5566Z" fill="#974995"/>
<path id="Vector_3" fill-rule="evenodd" clip-rule="evenodd" d="M26.1846 9.04368L18.6507 9.00642L15.0221 6.84344L11.0781 0L26.1846 9.04368Z" fill="#EE7024"/>
<path id="Vector_4" fill-rule="evenodd" clip-rule="evenodd" d="M11.0786 0L15.0226 6.84343L15.0306 16.2732L11.0547 15.0687L11.0786 0Z" fill="#FBB61B"/>
<path id="Vector_5" fill-rule="evenodd" clip-rule="evenodd" d="M0 6.88477L3.86543 13.8524L3.8529 17.9774L0.0318798 24.8728L0 6.88477Z" fill="#5A58A3"/>
<path id="Vector_6" fill-rule="evenodd" clip-rule="evenodd" d="M0 6.88477L26.1244 22.7335L18.6383 22.7854L3.86543 13.8524L0 6.88477Z" fill="#2188CB"/>
<path id="Vector_7" fill-rule="evenodd" clip-rule="evenodd" d="M18.652 9.00586L26.1859 9.04311L15.0348 15.8403L15.0234 11.1982L18.652 9.00586Z" fill="#DA0954"/>
<path id="Vector_8" fill-rule="evenodd" clip-rule="evenodd" d="M40.3781 10.1283C41.3148 9.30734 42.5341 8.87486 43.7835 8.92039C45.0735 8.89442 46.3726 8.98135 47.6546 8.83008C47.3768 9.6745 46.8132 10.4105 46.4375 11.2155C45.513 11.2313 44.5873 11.1974 43.664 11.229C42.4764 11.325 41.3447 12.2789 41.2286 13.4789C42.3091 12.411 43.9998 12.3387 45.4003 12.6887C46.3385 13.0059 47.1742 13.7047 47.5146 14.6417C47.8265 15.4695 47.8824 16.3708 47.6751 17.2303C47.3643 18.4055 46.4113 19.3154 45.2841 19.7455C43.9418 20.2546 42.4571 20.2546 41.1147 19.7455C39.8623 19.2397 38.9765 18.0657 38.6736 16.7776C38.3423 15.6317 38.3856 13.935 38.726 12.77C39.0241 11.7568 39.5953 10.8435 40.3781 10.1283ZM43.5843 14.6044C42.8795 14.4656 42.0859 14.7501 41.7204 15.3642C41.0567 16.4796 41.9686 18.1447 43.4567 17.9347C45.0803 17.7089 45.5062 15.1124 43.5843 14.6044ZM33.0935 11.7201C34.5532 11.3645 36.2223 11.4683 37.469 12.3703C37.0569 13.0296 36.6846 13.7115 36.3066 14.3911C35.6974 14.189 35.1054 13.8706 34.4461 13.8853C33.7471 13.8639 32.9899 14.1348 32.5926 14.7309C32.3827 15.0486 32.2682 15.419 32.2626 15.7987C32.2569 16.1785 32.3603 16.5521 32.5607 16.8758C32.9273 17.482 33.648 17.7631 34.3323 17.8263C34.8663 17.7665 35.4094 17.6931 35.9035 17.4673C36.0234 17.4061 36.1599 17.3848 36.2929 17.4064C36.5343 18.0905 37.0626 18.6561 37.2709 19.3481C35.9263 20.0616 34.3232 20.2061 32.851 19.8516C31.8366 19.5558 30.8699 18.9812 30.2892 18.0837C29.3704 16.6861 29.4057 14.7094 30.4612 13.3931C31.0976 12.5419 32.0711 11.9876 33.0935 11.7223V11.7201ZM49.0938 11.7573C51.9296 11.7355 54.7657 11.7355 57.6023 11.7573C57.5772 14.4272 57.5932 17.1005 57.5954 19.7726C56.6413 19.7726 55.6861 19.7805 54.732 19.7726C54.7764 18.0183 54.6875 16.2673 54.7433 14.5198C54.7485 14.3867 54.7158 14.2548 54.6488 14.1393C53.7778 14.1585 52.9046 14.1596 52.0301 14.1393C51.9755 16.0122 52.0199 17.8907 52.0085 19.7681C51.0373 19.7839 50.0661 19.7748 49.0961 19.7681C49.1006 17.0982 49.112 14.4272 49.0938 11.7573Z" fill="#1B1537"/>
<path id="Vector_9" fill-rule="evenodd" clip-rule="evenodd" d="M15.0249 24.9504L18.6387 22.7863L26.1247 22.7344L11.0547 32.0004L15.0249 24.9504Z" fill="#037F37"/>
</g>
<defs>
<clipPath id="clip0_820_5900">
<rect width="57.6" height="32" fill="white"/>
</clipPath>
</defs>
</svg>
