<svg width="421" height="236" viewBox="0 0 421 236" fill="none" xmlns="http://www.w3.org/2000/svg">
  <rect width="421" height="236" rx="24" fill="#3B4051" fill-opacity="0.05"/>
  <g clip-path="url(#clip0_884_1205)">
    <g opacity="0.1">
      <path d="M322.421 125.261C316.396 123.652 208.327 150.904 202.301 152.512L83.523 184.224C77.4975 185.835 77.4975 188.466 83.523 190.075L119.101 199.574C125.127 201.183 135.051 201.445 141.153 200.156C196.058 186.874 338.416 147.874 356.224 141.002C363.929 138.028 358.165 134.663 352.14 133.056L322.421 125.261Z" fill="#001230"/>
    </g>
    <g style="mix-blend-mode:multiply" opacity="0.5">
      <g style="mix-blend-mode:multiply" opacity="0.5">
        <path d="M314.674 127.811C308.649 126.203 298.788 126.444 292.763 128.054L84.8257 184.052C78.8003 185.661 78.8003 188.294 84.8257 189.903L111.445 197.001C117.47 198.609 123.892 198.982 127.393 198.745C129.985 198.564 245.102 167.578 306.533 150.567C328.052 144.608 344.834 139.419 345.334 139.08C347.266 137.778 347.997 135.82 341.971 134.203L314.674 127.811Z" fill="#001230"/>
      </g>
    </g>
    <path d="M147.573 168.263C145.463 176.114 148.425 183.727 154.193 185.266C159.96 186.806 166.347 181.691 168.457 173.84C170.568 165.988 167.605 158.376 161.838 156.836C156.07 155.297 149.685 160.411 147.573 168.263Z" fill="#1D2233"/>
    <path d="M154.199 185.266L162.711 187.539L170.356 159.108L161.844 156.836L154.199 185.266Z" fill="#1D2233"/>
    <path d="M272.326 135.027C270.214 142.878 273.178 150.491 278.945 152.03C284.713 153.57 291.1 148.453 293.21 140.604C295.32 132.754 292.358 125.14 286.59 123.598C280.823 122.057 274.436 127.172 272.326 135.027Z" fill="#1D2233"/>
    <path d="M278.94 152.035L287.451 154.308L295.096 125.877L286.585 123.604L278.94 152.035Z" fill="#1D2233"/>
    <path d="M303.65 141.52L280.406 141.163L189.345 163.981L179.024 178.816L155.588 173.641L157.864 154.095L311.242 112.961L310.246 130.642L303.65 141.52Z" fill="#1D2233"/>
    <path d="M342.246 111.203C342.116 102.835 342.985 49.7596 340.23 48.8594C333.832 46.6334 292.695 35.1776 289.414 36.047C286.133 36.9164 116.472 82.2325 89.0407 89.5642C80.9613 91.7213 69.1958 94.7207 68.376 100.638C67.669 105.756 61.3018 162.023 61.2564 162.793C60.6984 172.492 63.3321 179.505 66.9038 181.218C73.4472 184.355 99.9374 190.785 110.999 193.022C116.241 193.712 121.105 194.235 125.037 193.23C136.921 190.192 152.176 185.985 152.176 185.985C151.923 182.009 151.911 174.774 152.769 170.487C154.743 160.608 163.042 153.99 169.894 155.11C176.423 156.178 181.189 164.754 179.024 178.816L276.511 152.788C276.511 152.788 276.854 140.852 278.06 136.016C280.488 126.261 288.68 120.259 295.342 122.046C301.621 123.723 304.724 133.154 303.65 141.522C316.01 136.501 337.383 129.588 340.851 125.54C342.106 124.075 342.362 118.799 342.246 111.203Z" fill="white"/>
    <path opacity="0.1" d="M278.702 128.54L177.662 155.483V154.28C177.662 154.077 177.729 153.879 177.853 153.718C177.978 153.556 178.152 153.44 178.349 153.387L277.535 126.944C277.673 126.908 277.817 126.903 277.956 126.931C278.095 126.959 278.226 127.018 278.339 127.105C278.452 127.191 278.543 127.302 278.606 127.429C278.669 127.556 278.702 127.695 278.702 127.837V128.54Z" fill="#3B4051"/>
    <path opacity="0.75" d="M277.99 130.613L178.804 157.056C178.666 157.093 178.523 157.097 178.383 157.069C178.244 157.041 178.113 156.982 178.001 156.896C177.888 156.809 177.797 156.698 177.734 156.571C177.671 156.444 177.639 156.305 177.639 156.163V155.455L278.679 128.512V129.714C278.68 129.919 278.613 130.118 278.488 130.281C278.364 130.443 278.188 130.56 277.99 130.613Z" fill="white"/>
    <path opacity="0.1" d="M340.919 111.824L301.787 122.22V121.117C301.787 120.885 301.864 120.66 302.006 120.476C302.148 120.292 302.347 120.16 302.572 120.101L339.541 110.279C339.703 110.235 339.873 110.229 340.038 110.262C340.203 110.294 340.358 110.364 340.491 110.466C340.624 110.568 340.732 110.7 340.806 110.85C340.88 111 340.918 111.166 340.917 111.333L340.919 111.824Z" fill="#3B4051"/>
    <path opacity="0.75" d="M340.087 113.927L303.071 123.762C302.918 123.802 302.757 123.807 302.601 123.776C302.446 123.745 302.3 123.678 302.174 123.582C302.048 123.486 301.946 123.362 301.876 123.22C301.806 123.078 301.77 122.922 301.77 122.764V122.195L340.899 111.799V112.873C340.9 113.113 340.821 113.347 340.674 113.538C340.527 113.729 340.32 113.866 340.087 113.927Z" fill="white"/>
    <mask id="mask0_884_1205" style="mask-type:luminance" maskUnits="userSpaceOnUse" x="61" y="36" width="282" height="158">
      <path d="M342.246 111.203C342.12 103.929 342.985 49.7596 340.23 48.8594C333.832 46.6334 292.695 35.1776 289.414 36.047C286.133 36.9164 116.472 82.2325 89.0407 89.5642C80.9613 91.7213 69.1958 94.7207 68.376 100.638C67.669 105.756 61.3018 162.023 61.2564 162.793C60.6984 172.492 63.3321 179.505 66.9038 181.218C73.4472 184.355 99.9374 190.785 110.999 193.022C116.241 193.712 121.105 194.235 125.037 193.23C136.921 190.192 152.176 185.985 152.176 185.985C151.923 182.009 151.911 174.774 152.769 170.487C154.743 160.608 163.042 153.99 169.894 155.11C176.423 156.178 181.189 164.754 179.024 178.816L276.511 152.788C276.511 152.788 276.854 140.852 278.06 136.016C280.488 126.261 288.68 120.259 295.342 122.046C301.622 123.723 304.724 133.154 303.65 141.522C316.01 136.501 337.383 129.588 340.851 125.54C342.106 124.075 342.376 118.799 342.246 111.203Z" fill="white"/>
    </mask>
    <g mask="url(#mask0_884_1205)">
      <path opacity="0.1" d="M115.902 194.528C113.406 190 113.032 182.937 113.479 177.805C113.546 177.037 119.89 120.767 120.598 115.651C121.416 109.733 133.182 106.734 141.261 104.577C168.693 97.2524 339.941 51.4926 343.222 50.625L354.744 121.035L336.867 144.159L125.695 198.976L115.902 194.528Z" fill="#3B4051"/>
    </g>
    <path d="M64.6872 110.71L69.8929 112.101C70.2064 112.186 70.4832 112.371 70.6803 112.628C70.8775 112.886 70.984 113.201 70.9835 113.524V126.462C70.9836 126.825 70.8566 127.177 70.6244 127.457C70.3921 127.737 70.0692 127.928 69.7111 127.996L68.6787 128.197C68.4071 128.251 68.1267 128.242 67.8589 128.171L63.2349 126.962C62.7864 126.844 62.3897 126.582 62.1065 126.216C61.8234 125.85 61.6699 125.401 61.6699 124.939V113.347C61.67 112.929 61.7618 112.516 61.9389 112.137C62.116 111.758 62.3741 111.423 62.6951 111.154C62.9665 110.925 63.2895 110.765 63.6364 110.688C63.9833 110.61 64.3438 110.618 64.6872 110.71Z" fill="#272C3D"/>
    <mask id="mask1_884_1205" style="mask-type:luminance" maskUnits="userSpaceOnUse" x="61" y="110" width="10" height="19">
      <path d="M64.6872 110.71L69.8929 112.101C70.2064 112.186 70.4832 112.371 70.6803 112.628C70.8775 112.886 70.984 113.201 70.9835 113.524V126.462C70.9836 126.825 70.8566 127.177 70.6244 127.457C70.3921 127.737 70.0692 127.928 69.7111 127.996L68.6787 128.197C68.4071 128.251 68.1267 128.242 67.8589 128.171L63.2349 126.962C62.7864 126.844 62.3897 126.582 62.1065 126.216C61.8234 125.85 61.6699 125.401 61.6699 124.939V113.347C61.67 112.929 61.7618 112.516 61.9389 112.137C62.116 111.758 62.3741 111.423 62.6951 111.154C62.9665 110.925 63.2895 110.765 63.6364 110.688C63.9833 110.61 64.3438 110.618 64.6872 110.71Z" fill="white"/>
    </mask>
    <g mask="url(#mask1_884_1205)">
      <path opacity="0.1" d="M70.5459 128.899H68.8301V114.008L70.5459 113.186V128.899Z" fill="#3B4051"/>
    </g>
    <path d="M116.973 162.792L328.067 106.43C328.919 106.202 329.681 105.722 330.254 105.054C330.827 104.386 331.183 103.56 331.275 102.686L336.079 57.0781L128.324 112.564C126.537 113.043 124.937 114.05 123.736 115.454C122.536 116.857 121.79 118.59 121.599 120.425L116.973 162.792Z" fill="#3B4051"/>
    <path d="M70.7539 101.283L115.831 113.507C116.318 113.639 116.742 113.941 117.026 114.357C117.309 114.774 117.434 115.278 117.378 115.778L111.4 168.286C111.365 168.588 111.266 168.878 111.108 169.138C110.951 169.397 110.739 169.62 110.487 169.79C110.235 169.961 109.95 170.075 109.65 170.126C109.349 170.176 109.042 170.162 108.748 170.083L63.6052 157.962C63.1163 157.831 62.691 157.529 62.4065 157.111C62.122 156.694 61.9972 156.189 62.0547 155.687L68.0965 103.083C68.1304 102.781 68.2296 102.489 68.3872 102.229C68.5448 101.968 68.7571 101.745 69.0096 101.574C69.2621 101.403 69.5487 101.288 69.8498 101.238C70.1509 101.188 70.4593 101.203 70.7539 101.283Z" fill="#3B4051"/>
    <path d="M121.307 122.351L116.495 166.837C116.444 167.302 116.51 167.771 116.685 168.205C116.86 168.638 117.14 169.022 117.499 169.321C117.859 169.621 118.287 169.828 118.746 169.923C119.205 170.018 119.681 169.999 120.131 169.867L123.608 168.862L123.451 123.401L121.307 122.351Z" fill="#3B4051"/>
    <path d="M155.86 170.476C153.75 178.328 156.712 185.94 162.48 187.48C168.247 189.019 174.634 183.902 176.746 176.053C178.858 168.203 175.894 160.589 170.127 159.047C164.359 157.506 157.972 162.625 155.86 170.476Z" fill="#272C3D"/>
    <path d="M175.588 174.691C177.094 169.093 174.981 163.665 170.869 162.567C166.757 161.468 162.203 165.116 160.697 170.713C159.191 176.311 161.304 181.739 165.416 182.837C169.528 183.936 174.082 180.288 175.588 174.691Z" fill="white"/>
    <path d="M161.752 172.048C160.855 175.386 162.115 178.623 164.567 179.278C167.019 179.934 169.735 177.757 170.631 174.419C171.527 171.081 170.267 167.844 167.817 167.19C165.367 166.536 162.649 168.71 161.752 172.048Z" fill="#272C3D"/>
    <path d="M164.599 172.814C164.255 174.096 164.739 175.338 165.689 175.59C166.64 175.842 167.674 175.005 168.02 173.725C168.365 172.444 167.88 171.198 166.929 170.946C165.978 170.695 164.944 171.526 164.599 172.814Z" fill="#5D6E81"/>
    <path d="M167.071 166.379L165.581 166.778C165.008 166.93 164.539 166.555 164.539 165.943V165.702C164.548 165.391 164.653 165.091 164.839 164.842C165.025 164.592 165.284 164.406 165.581 164.309L167.071 163.912C167.645 163.758 168.114 164.135 168.114 164.747V164.988C168.105 165.299 168 165.599 167.814 165.848C167.627 166.097 167.368 166.283 167.071 166.379Z" fill="#3B4051"/>
    <path d="M167.071 182.145L165.581 182.544C165.008 182.698 164.539 182.321 164.539 181.709V181.468C164.548 181.157 164.653 180.857 164.839 180.608C165.025 180.359 165.284 180.174 165.581 180.077L167.071 179.678C167.645 179.526 168.114 179.901 168.114 180.513V180.754C168.106 181.065 168.001 181.366 167.814 181.615C167.627 181.864 167.368 182.049 167.071 182.145Z" fill="#3B4051"/>
    <path d="M160.92 173.551V175.795C160.913 176.095 160.812 176.385 160.632 176.625C160.452 176.866 160.202 177.045 159.915 177.137C159.37 177.284 158.91 176.922 158.91 176.333V174.082C158.918 173.782 159.018 173.492 159.198 173.251C159.379 173.011 159.629 172.832 159.915 172.74C160.461 172.598 160.92 172.96 160.92 173.551Z" fill="#3B4051"/>
    <path d="M173.749 170.123V172.369C173.741 172.668 173.64 172.958 173.461 173.198C173.281 173.438 173.031 173.616 172.745 173.709C172.2 173.858 171.74 173.495 171.74 172.905V170.659C171.748 170.36 171.849 170.07 172.029 169.83C172.209 169.59 172.459 169.411 172.745 169.319C173.298 169.172 173.749 169.533 173.749 170.123Z" fill="#3B4051"/>
    <path d="M161.922 178.398L163.074 179.507C163.452 179.869 163.452 180.63 163.074 181.195L163.029 181.264C162.651 181.829 162.033 181.988 161.655 181.626L160.5 180.517C160.122 180.155 160.122 179.393 160.5 178.828L160.546 178.761C160.92 178.201 161.544 178.034 161.922 178.398Z" fill="#3B4051"/>
    <path d="M171 164.825L172.152 165.934C172.53 166.296 172.53 167.057 172.152 167.622L172.107 167.691C171.729 168.256 171.111 168.415 170.733 168.053L169.578 166.944C169.2 166.582 169.2 165.821 169.578 165.256L169.626 165.188C170.009 164.628 170.622 164.463 171 164.825Z" fill="#3B4051"/>
    <path d="M169.578 177.77L170.733 176.045C171.111 175.48 171.729 175.321 172.107 175.683L172.152 175.728C172.53 176.091 172.53 176.851 172.152 177.416L171 179.141C170.622 179.706 170.004 179.865 169.626 179.503L169.578 179.458C169.2 179.095 169.2 178.335 169.578 177.77Z" fill="#3B4051"/>
    <path d="M160.5 169.045L161.655 167.321C162.033 166.756 162.651 166.596 163.029 166.958L163.074 167.002C163.452 167.364 163.452 168.127 163.074 168.692L161.922 170.416C161.544 170.981 160.924 171.141 160.546 170.778L160.5 170.735C160.122 170.369 160.122 169.61 160.5 169.045Z" fill="#3B4051"/>
    <path d="M62.8542 164.722L108.777 177.038C109.139 177.135 109.459 177.349 109.687 177.647C109.915 177.944 110.038 178.308 110.036 178.683V179.248C110.033 179.798 109.904 180.34 109.658 180.832C109.412 181.325 109.055 181.754 108.616 182.088C108.178 182.422 107.668 182.651 107.126 182.757C106.584 182.863 106.025 182.844 105.492 182.702L64.2429 171.61C63.4041 171.385 62.6613 170.895 62.1261 170.213C61.5908 169.532 61.2921 168.695 61.2747 167.83L61.2365 165.982C61.2332 165.784 61.2761 165.588 61.3618 165.409C61.4475 165.23 61.5737 165.073 61.7305 164.951C61.8872 164.829 62.0703 164.744 62.2653 164.705C62.4603 164.665 62.6619 164.671 62.8542 164.722Z" fill="#272C3D"/>
    <path opacity="0.1" d="M100.985 190.077C101.79 189.883 100.73 187.92 100.389 187.239C97.4806 181.455 80.2876 177.766 75.1237 176.384C70.4906 175.145 68.324 176.998 67.8441 178.222C67.6624 178.693 67.1025 180.635 67.6878 181.149C69.051 182.343 77.4648 184.495 81.7563 185.743C86.3985 187.094 100.053 190.301 100.985 190.077Z" fill="#3B4051"/>
    <path d="M70.8378 173.392L96.6518 180.331L99.0383 174.432L69.6836 166.555L70.8378 173.392Z" fill="#272C3D"/>
    <path d="M83.7552 172.874C83.9006 173.71 83.4625 174.484 82.7791 174.6C82.0957 174.716 81.4213 174.134 81.2759 173.297C81.1305 172.461 81.5686 171.687 82.252 171.571C82.9354 171.455 83.6098 172.037 83.7552 172.874Z" fill="white"/>
    <path d="M108.011 179.535C108.08 180.381 107.575 181.111 106.882 181.165C106.19 181.22 105.573 180.579 105.504 179.731C105.435 178.883 105.942 178.155 106.635 178.101C107.327 178.047 107.944 178.69 108.011 179.535Z" fill="#ED1A3B"/>
    <path d="M104.782 178.664C104.849 179.512 104.344 180.242 103.652 180.294C102.959 180.347 102.343 179.705 102.276 178.86C102.208 178.014 102.712 177.282 103.404 177.23C104.097 177.177 104.713 177.818 104.782 178.664Z" fill="#3B4051"/>
    <path d="M101.55 177.795C101.617 178.641 101.112 179.371 100.421 179.425C99.7305 179.48 99.1125 178.837 99.0434 177.991C98.9743 177.145 99.4815 176.415 100.172 176.361C100.863 176.306 101.484 176.947 101.55 177.795Z" fill="#3B4051"/>
    <path d="M71.5867 169.895C71.654 170.741 71.1487 171.47 70.4562 171.525C69.7637 171.579 69.1475 170.936 69.0802 170.09C69.013 169.244 69.5183 168.515 70.209 168.46C70.8997 168.406 71.5177 169.047 71.5867 169.895Z" fill="#3B4051"/>
    <path d="M68.3566 169.024C68.4256 169.869 67.9185 170.599 67.2278 170.654C66.5371 170.708 65.9191 170.065 65.85 169.219C65.781 168.373 66.2881 167.643 66.9806 167.589C67.6731 167.535 68.2875 168.178 68.3566 169.024Z" fill="#3B4051"/>
    <path d="M65.1319 168.152C65.201 168.998 64.6957 169.73 64.0032 169.783C63.3107 169.835 62.6945 169.196 62.6254 168.35C62.5564 167.504 63.0635 166.772 63.756 166.72C64.4485 166.667 65.0574 167.307 65.1319 168.152Z" fill="#ED1A3B"/>
    <g opacity="0.1">
      <path d="M145.61 80.5097L143.346 79.9047L194.906 66.1396L197.171 66.7428L145.61 80.5097Z" fill="#3B4051"/>
      <path d="M152.073 82.2361L149.809 81.6312L201.369 67.8643L203.634 68.4692L152.073 82.2361Z" fill="#3B4051"/>
      <path d="M158.538 83.9617L156.273 83.3567L207.834 69.5898L210.099 70.1948L158.538 83.9617Z" fill="#3B4051"/>
      <path d="M164.999 85.6882L162.736 85.0833L214.297 71.3164L216.562 71.9213L164.999 85.6882Z" fill="#3B4051"/>
      <path d="M171.464 87.4138L169.197 86.8089L220.76 73.042L223.025 73.6469L171.464 87.4138Z" fill="#3B4051"/>
    </g>
    <g opacity="0.1">
      <path d="M218.109 61.159L215.844 60.554L267.404 46.7871L269.669 47.392L218.109 61.159Z" fill="#3B4051"/>
      <path d="M224.571 62.8845L222.307 62.2796L273.867 48.5127L276.132 49.1176L224.571 62.8845Z" fill="#3B4051"/>
      <path d="M231.036 64.6111L228.771 64.0062L280.332 50.2393L282.597 50.8442L231.036 64.6111Z" fill="#3B4051"/>
      <path d="M237.499 66.3367L235.234 65.7317L286.795 51.9648L289.06 52.5698L237.499 66.3367Z" fill="#3B4051"/>
      <path d="M243.962 68.0614L241.697 67.4583L293.258 53.6914L295.523 54.2963L243.962 68.0614Z" fill="#3B4051"/>
    </g>
    <path d="M121.308 122.35L333.987 65.6074L333.705 68.3912L120.982 125.754L121.308 122.35Z" fill="#272C3D"/>
    <path d="M143.9 151.187L329.923 102.067L329.841 102.808C329.775 103.414 329.526 103.985 329.128 104.447C328.73 104.909 328.201 105.241 327.611 105.398L143.574 154.59L143.9 151.187Z" fill="#272C3D"/>
    <path d="M256.417 154.572L242.887 158.185V91.5079L256.417 87.8945V154.572Z" fill="#272C3D"/>
    <path d="M254.184 152.565L245.119 154.985V93.5164L254.184 91.0967V152.565Z" fill="#3B4051"/>
    <path d="M269.947 150.961L256.418 154.572V87.8947L269.947 84.2832V150.961Z" fill="#272C3D"/>
    <path d="M267.713 148.952L258.648 151.372V89.9032L267.713 87.4834V148.952Z" fill="#3B4051"/>
    <path d="M261.228 136.728L259.42 137.211V128.912L261.228 128.429V136.728Z" fill="#272C3D"/>
    <path d="M253.412 138.84L251.604 139.324V131.023L253.412 130.541V138.84Z" fill="#272C3D"/>
    <path d="M136.972 186.465L123.441 190.077V123.4L136.972 119.788V186.465Z" fill="#272C3D"/>
    <path d="M134.74 184.457L125.676 186.876V125.408L134.74 122.988V184.457Z" fill="#3B4051"/>
    <path d="M150.503 182.851L136.973 186.465V119.787L150.503 116.174V182.851Z" fill="#272C3D"/>
    <path d="M148.269 180.843L139.203 183.263V121.795L148.269 119.375V180.843Z" fill="#3B4051"/>
    <path d="M141.865 168.649L140.057 169.132V160.833L141.865 160.35V168.649Z" fill="#272C3D"/>
    <path d="M134.047 170.76L132.238 171.243V162.943L134.047 162.461V170.76Z" fill="#272C3D"/>
    <path d="M170.703 103.955L174.787 102.864V143.888L170.703 144.98V103.955Z" fill="#272C3D"/>
    <path d="M329.924 60.8437L334.615 59.6846L329.917 102.144C329.879 102.485 329.769 102.813 329.594 103.107C329.42 103.402 329.184 103.656 328.903 103.853C328.622 104.05 328.303 104.185 327.965 104.249C327.628 104.313 327.281 104.305 326.947 104.226L326.104 104.024L329.924 60.8437Z" fill="#272C3D"/>
    <path d="M225.441 88.9867L229.527 87.8945V128.92L225.441 130.01V88.9867Z" fill="#272C3D"/>
    <path d="M281.924 73.8501L286.008 72.7598V113.783L281.924 114.876V73.8501Z" fill="#272C3D"/>
    <path d="M222.943 94.4204L176.752 106.753V100.877L222.943 88.5449V94.4204Z" fill="#272C3D"/>
    <path d="M340.229 48.8594C336.949 49.7269 165.701 95.4868 138.269 102.811C130.19 104.968 118.424 107.968 117.606 113.883C116.899 119.002 110.554 175.272 110.487 176.038C110.039 181.164 110.414 188.224 112.911 192.761" stroke="#231F32" stroke-width="0.96" stroke-miterlimit="10"/>
    <path d="M179.445 175.123L276.798 149.131" stroke="#231F32" stroke-width="0.96" stroke-miterlimit="10"/>
    <path d="M123.441 190.076L152.04 182.44" stroke="#231F32" stroke-width="0.96" stroke-miterlimit="10"/>
    <path d="M300.678 126.207L342.28 115.101" stroke="#231F32" stroke-width="0.96" stroke-miterlimit="10"/>
    <path d="M269.945 134.413L279.535 131.852" stroke="#231F32" stroke-width="0.96" stroke-miterlimit="10"/>
    <path d="M176.262 159.428L242.632 141.705" stroke="#231F32" stroke-width="0.96" stroke-miterlimit="10"/>
    <path d="M121.307 123.921L335.091 66.8408" stroke="#231F32" stroke-width="0.96" stroke-miterlimit="10"/>
    <path d="M172.746 100.72V147.876" stroke="#231F32" stroke-width="0.96" stroke-miterlimit="10"/>
    <path d="M227.484 86.0781V162.299" stroke="#231F32" stroke-width="0.96" stroke-miterlimit="10"/>
    <path d="M283.965 71.249V118.206" stroke="#231F32" stroke-width="0.96" stroke-miterlimit="10"/>
    <path d="M182.426 156.089L178.778 157.064C178.644 157.099 178.504 157.103 178.368 157.075C178.232 157.048 178.104 156.99 177.994 156.906C177.884 156.821 177.794 156.713 177.733 156.589C177.671 156.465 177.639 156.329 177.639 156.191V155.466L182.426 154.188V156.089Z" fill="#ED1A3B"/>
    <path d="M240.67 140.548L235.881 141.826V139.928L240.67 138.649V140.548Z" fill="#ED1A3B"/>
    <path d="M340.104 113.918L336.131 114.977V113.078L340.919 111.799V112.864C340.917 113.104 340.837 113.337 340.69 113.528C340.543 113.718 340.337 113.855 340.104 113.918Z" fill="#ED1A3B"/>
    <path d="M229.529 66.385L220.857 64.0703C219.61 63.737 217.585 63.737 216.346 64.0703L207.672 66.385C206.427 66.7182 206.427 67.258 207.672 67.5894L216.346 69.9059C217.591 70.2374 219.618 70.2374 220.857 69.9059L229.529 67.5894C230.776 67.258 230.776 66.7182 229.529 66.385Z" fill="#B4BDC5"/>
    <path d="M230.464 66.1709H206.738V66.9877H230.464V66.1709Z" fill="#B4BDC5"/>
    <path d="M229.529 65.5676L220.857 63.2529C219.61 62.9196 217.585 62.9196 216.346 63.2529L207.672 65.5676C206.427 65.9008 206.427 66.4406 207.672 66.772L216.346 69.0886C217.591 69.42 219.618 69.42 220.857 69.0886L229.529 66.772C230.776 66.4406 230.776 65.9008 229.529 65.5676Z" fill="#CDCDCE"/>
    <path d="M156.265 85.2336L147.593 82.9189C146.348 82.5856 144.321 82.5856 143.082 82.9189L134.41 85.2336C133.163 85.5668 133.163 86.1048 134.41 86.438L143.082 88.7527C144.329 89.086 146.353 89.086 147.593 88.7527L156.265 86.438C157.512 86.1048 157.512 85.5668 156.265 85.2336Z" fill="#B4BDC5"/>
    <path d="M157.202 85.0195H133.477V85.8364H157.202V85.0195Z" fill="#B4BDC5"/>
    <path d="M156.265 84.4167L147.593 82.1001C146.348 81.7687 144.321 81.7687 143.082 82.1001L134.41 84.4167C133.163 84.7499 133.163 85.2878 134.41 85.6211L143.082 87.9358C144.329 88.2691 146.353 88.2691 147.593 87.9358L156.265 85.6211C157.512 85.2878 157.512 84.7499 156.265 84.4167Z" fill="#CDCDCE"/>
    <g opacity="0.1">
      <path d="M321.501 124.503L311.242 127.241V126.066L321.501 123.327V124.503Z" fill="#3B4051"/>
      <path d="M321.501 126.318L311.242 129.056V127.879L321.501 125.141V126.318Z" fill="#3B4051"/>
      <path d="M321.501 128.131L311.242 130.871V129.694L321.501 126.955V128.131Z" fill="#3B4051"/>
      <path d="M321.501 129.945L311.242 132.683V131.508L321.501 128.768V129.945Z" fill="#3B4051"/>
      <path d="M321.501 131.76L311.242 134.499V133.322L321.501 130.583V131.76Z" fill="#3B4051"/>
    </g>
    <path d="M115.185 123.505L116.093 115.519L69.6093 102.913L68.6914 110.897L115.185 123.505Z" fill="#272C3D"/>
    <path d="M64.1774 150.196L63.4395 156.613L109.991 169.121L110.721 162.703L64.1774 150.196Z" fill="#272C3D"/>
    <path opacity="0.1" d="M71.6432 102.901L114.607 114.553C115.073 114.679 115.478 114.968 115.749 115.367C116.019 115.766 116.137 116.248 116.081 116.726L64.8235 156.924C64.3565 156.799 63.9503 156.51 63.679 156.111C63.4077 155.712 63.2894 155.229 63.3458 154.751L69.104 104.615C69.1364 104.326 69.2312 104.048 69.3819 103.799C69.5326 103.551 69.7357 103.337 69.9771 103.175C70.2184 103.012 70.4924 102.903 70.7801 102.856C71.0677 102.809 71.3622 102.824 71.6432 102.901Z" fill="white"/>
    <path opacity="0.1" d="M118.553 163.276L332.25 60.1699L129.624 114.285C127.879 114.75 126.318 115.733 125.146 117.102C123.973 118.47 123.246 120.162 123.059 121.952L118.553 163.276Z" fill="white"/>
    <path d="M121.795 125.985L127 127.375C127.314 127.459 127.591 127.645 127.788 127.902C127.985 128.159 128.091 128.474 128.091 128.798V141.735C128.091 142.099 127.964 142.451 127.732 142.731C127.5 143.011 127.177 143.201 126.819 143.27L125.786 143.472C125.514 143.525 125.233 143.516 124.965 143.445L120.342 142.235C119.894 142.118 119.497 141.856 119.214 141.49C118.931 141.125 118.777 140.676 118.777 140.214V128.622C118.778 128.205 118.87 127.792 119.047 127.413C119.224 127.034 119.482 126.698 119.802 126.429C120.074 126.2 120.397 126.04 120.744 125.963C121.091 125.886 121.451 125.893 121.795 125.985Z" fill="#272C3D"/>
    <mask id="mask2_884_1205" style="mask-type:luminance" maskUnits="userSpaceOnUse" x="118" y="125" width="11" height="19">
      <path d="M121.795 125.985L127 127.375C127.314 127.459 127.591 127.645 127.788 127.902C127.985 128.159 128.091 128.474 128.091 128.798V141.735C128.091 142.099 127.964 142.451 127.732 142.731C127.5 143.011 127.177 143.201 126.819 143.27L125.786 143.472C125.514 143.525 125.233 143.516 124.965 143.445L120.342 142.235C119.894 142.118 119.497 141.856 119.214 141.49C118.931 141.125 118.777 140.676 118.777 140.214V128.622C118.778 128.205 118.87 127.792 119.047 127.413C119.224 127.034 119.482 126.698 119.802 126.429C120.074 126.2 120.397 126.04 120.744 125.963C121.091 125.886 121.451 125.893 121.795 125.985Z" fill="white"/>
    </mask>
    <g mask="url(#mask2_884_1205)">
      <path opacity="0.1" d="M127.653 144.173H125.936V129.281L127.653 128.459V144.173Z" fill="#3B4051"/>
    </g>
    <path d="M302.006 47.1818L293.332 44.8671C292.087 44.5339 290.061 44.5339 288.821 44.8671L280.156 47.1818C278.911 47.5151 278.911 48.053 280.156 48.3863L288.828 50.7028C290.075 51.0343 292.1 51.0343 293.34 50.7028L302.013 48.3863C303.251 48.053 303.251 47.5151 302.006 47.1818Z" fill="#B4BDC5"/>
    <path d="M302.94 46.9688H279.215V47.7856H302.94V46.9688Z" fill="#B4BDC5"/>
    <path d="M302.006 46.3649L293.332 44.0484C292.087 43.7169 290.061 43.7169 288.821 44.0484L280.156 46.3649C278.911 46.6982 278.911 47.2361 280.156 47.5693L288.828 49.8841C290.075 50.2173 292.1 50.2173 293.34 49.8841L302.013 47.5693C303.251 47.2361 303.251 46.6982 302.006 46.3649Z" fill="#CDCDCE"/>
    <path d="M280.612 137.238C278.502 145.09 281.464 152.702 287.232 154.244C292.999 155.785 299.386 150.667 301.498 142.815C303.61 134.964 300.644 127.351 294.877 125.812C289.109 124.272 282.724 129.389 280.612 137.238Z" fill="#272C3D"/>
    <path d="M298.466 142.005C299.965 136.431 297.861 131.026 293.766 129.933C289.671 128.839 285.137 132.472 283.638 138.046C282.139 143.62 284.243 149.025 288.338 150.118C292.433 151.212 296.967 147.579 298.466 142.005Z" fill="white"/>
    <path d="M286.504 138.813C285.607 142.151 286.867 145.388 289.319 146.041C291.771 146.695 294.485 144.522 295.383 141.184C296.281 137.846 295.019 134.609 292.569 133.953C290.119 133.298 287.401 135.475 286.504 138.813Z" fill="#272C3D"/>
    <path d="M289.349 139.571C289.004 140.854 289.489 142.107 290.44 142.35C291.391 142.592 292.425 141.765 292.77 140.482C293.116 139.2 292.63 137.958 291.68 137.706C290.729 137.454 289.695 138.291 289.349 139.571Z" fill="#5D6E81"/>
    <path d="M291.823 133.149L290.333 133.546C289.76 133.7 289.291 133.323 289.291 132.711V132.47C289.3 132.159 289.405 131.859 289.591 131.61C289.778 131.361 290.036 131.176 290.333 131.079L291.823 130.68C292.397 130.528 292.866 130.903 292.866 131.515V131.756C292.857 132.067 292.753 132.368 292.566 132.617C292.379 132.866 292.12 133.052 291.823 133.149Z" fill="#3B4051"/>
    <path d="M291.823 148.907L290.333 149.305C289.76 149.457 289.291 149.082 289.291 148.47V148.229C289.3 147.919 289.405 147.618 289.591 147.369C289.777 147.12 290.036 146.934 290.333 146.836L291.823 146.44C292.397 146.286 292.866 146.663 292.866 147.275V147.516C292.857 147.826 292.752 148.127 292.566 148.376C292.379 148.625 292.119 148.81 291.823 148.907Z" fill="#3B4051"/>
    <path d="M285.663 140.314V142.567C285.655 142.866 285.554 143.156 285.375 143.396C285.195 143.636 284.945 143.815 284.659 143.907C284.114 144.056 283.654 143.694 283.654 143.103V140.857C283.662 140.558 283.763 140.268 283.943 140.028C284.123 139.788 284.373 139.609 284.659 139.517C285.212 139.363 285.663 139.725 285.663 140.314Z" fill="#3B4051"/>
    <path d="M298.501 136.887V139.125C298.493 139.425 298.393 139.715 298.213 139.955C298.033 140.196 297.783 140.375 297.497 140.467C296.952 140.614 296.492 140.252 296.492 139.663V137.417C296.5 137.118 296.601 136.828 296.781 136.588C296.961 136.348 297.211 136.17 297.497 136.077C298.048 135.934 298.501 136.296 298.501 136.887Z" fill="#3B4051"/>
    <path d="M286.674 145.162L287.826 146.271C288.204 146.633 288.204 147.394 287.826 147.959L287.781 148.028C287.403 148.593 286.785 148.752 286.406 148.39L285.252 147.282C284.874 146.919 284.874 146.159 285.252 145.594L285.298 145.525C285.676 144.963 286.296 144.798 286.674 145.162Z" fill="#3B4051"/>
    <path d="M295.75 131.589L296.902 132.698C297.28 133.06 297.28 133.821 296.902 134.386L296.857 134.455C296.479 135.02 295.861 135.179 295.483 134.817L294.328 133.708C293.95 133.346 293.95 132.585 294.328 132.02L294.374 131.951C294.752 131.39 295.372 131.225 295.75 131.589Z" fill="#3B4051"/>
    <path d="M294.335 144.534L295.489 142.81C295.867 142.245 296.485 142.085 296.863 142.448L296.908 142.491C297.286 142.853 297.286 143.614 296.908 144.181L295.756 145.905C295.378 146.47 294.758 146.63 294.38 146.268L294.335 146.224C293.951 145.858 293.951 145.103 294.335 144.534Z" fill="#3B4051"/>
    <path d="M285.247 135.808L286.401 134.083C286.78 133.518 287.398 133.359 287.776 133.721L287.821 133.765C288.199 134.127 288.199 134.888 287.821 135.453L286.669 137.177C286.291 137.742 285.671 137.901 285.293 137.539L285.247 137.496C284.884 137.133 284.884 136.375 285.247 135.808Z" fill="#3B4051"/>
    <path d="M75.9551 182.207L88.075 185.444V180.362L75.9551 177.125V182.207Z" fill="#001230"/>
    <path d="M75.1934 182.375L87.3133 185.612V180.53L75.1934 177.293V182.375Z" fill="white"/>
  </g>
  <defs>
    <clipPath id="clip0_884_1205">
      <rect width="299" height="165" fill="white" transform="translate(61 36)"/>
    </clipPath>
  </defs>
</svg>
