<svg width="421" height="236" viewBox="0 0 421 236" fill="none" xmlns="http://www.w3.org/2000/svg">
  <rect width="421" height="236" rx="24" fill="#3B4051" fill-opacity="0.05"/>
  <g clip-path="url(#clip0_884_667)">
    <g style="mix-blend-mode:multiply" opacity="0.1">
      <path d="M294.874 117.666C286.393 115.383 272.519 115.383 264.04 117.666L87.4779 161.337C78.9994 163.617 85.6976 169.674 94.1761 171.954L143.64 186.383C152.118 188.663 169.407 187.049 177.992 185.222C256.504 174.059 333.68 147.404 342.445 139.986C351.32 132.459 345.176 131.002 336.702 128.716L294.874 117.666Z" fill="#001230"/>
    </g>
    <g style="mix-blend-mode:multiply" opacity="0.9">
      <g style="mix-blend-mode:multiply" opacity="0.8">
        <path d="M272.872 123.828C264.391 121.548 250.517 121.548 242.039 123.828L87.4789 161.337C79.0004 163.617 90.2458 168.398 98.7243 170.681L136.183 180.745C144.661 183.026 153.699 183.555 158.632 183.219C163.566 182.884 169.669 181.843 180.982 177.907C198.472 171.818 229.232 163.049 241.736 159.494C256.239 155.374 268.1 154.156 280.322 150.976C300.119 145.824 309.062 141.787 311.782 139.939C314.502 138.092 315.528 135.303 307.05 133.023L272.872 123.828Z" fill="#001230"/>
      </g>
    </g>
    <path d="M122.829 96.3682L115.387 102.202C115.387 102.202 116.17 97.9539 117.673 96.3682C119.96 93.9753 122.829 96.3682 122.829 96.3682Z" fill="white"/>
    <path d="M258.798 124.762C256.049 135.062 259.91 145.053 267.412 147.071C274.915 149.09 283.239 142.38 285.988 132.079C288.737 121.779 284.878 111.788 277.374 109.767C269.869 107.746 261.55 114.461 258.798 124.762Z" fill="#1D2233"/>
    <path d="M267.412 147.08L278.496 150.062L288.452 112.756L277.368 109.774L267.412 147.08Z" fill="#1D2233"/>
    <path d="M142.195 156.187C139.446 166.49 143.304 176.478 150.809 178.499C158.314 180.52 166.638 173.805 169.387 163.504C172.136 153.204 168.275 143.213 160.773 141.192C153.271 139.171 144.944 145.886 142.195 156.187Z" fill="#1D2233"/>
    <path d="M150.806 178.506L161.891 181.488L171.846 144.182L160.762 141.2L150.806 178.506Z" fill="#001230"/>
    <path d="M298.549 130.816L279.036 124.628L194.51 150.492L181.753 166.671L154.07 162.153L156.798 138.559L285.641 102.893L305.127 115.882L298.549 130.816Z" fill="#1D2233"/>
    <path d="M290.018 71.894C264.335 63.5777 213.013 52.0559 180.159 61.6015C146.657 71.3357 113.542 103.857 113.542 103.857C113.542 103.857 93.9356 114.021 84.2303 121.844C73.8358 130.232 73.9533 146.516 76.3235 155.393C78.1508 162.257 124.696 172.985 135.341 172.901C138.393 173.538 143.099 173.517 147.662 173.459L149.777 172.901C149.43 168.028 149.741 163.131 150.701 158.341C153.066 146.419 163.008 138.422 171.218 139.782C179.049 141.069 184.356 149.695 181.761 166.671L193.581 161.106C214.507 154.107 235.831 148.37 257.438 143.926L266.087 142.896C266.087 137.599 266.455 132.936 267.898 127.097C270.809 115.321 280.621 108.087 288.604 110.234C296.127 112.257 299.844 120.717 298.557 130.816C301.93 129.076 303.822 127.037 304.871 123.954C306.753 118.416 307.931 110.532 307.654 107.704C307.471 105.87 307.148 104.003 305.827 103.346C302.929 94.9585 297.502 81.1303 290.018 71.894Z" fill="white"/>
    <path d="M229.655 76.3683C248.246 70.2038 261.968 69.0637 287.425 71.4697L290.019 71.8943C264.292 63.5701 212.961 52.0719 180.159 61.6018C171.731 64.0524 163.328 67.9419 155.471 72.3949C155.044 72.671 154.618 72.9497 154.192 73.231C147.431 77.1782 140.889 81.4916 134.596 86.1524C129.568 89.9082 125.198 93.4754 121.784 96.4135C119.013 98.8003 116.343 101.207 113.773 103.634C113.621 103.778 113.543 103.857 113.543 103.857C118.905 112.768 138.665 119.845 176.205 120.71C176.207 120.715 196.54 87.3581 229.655 76.3683Z" fill="#3B4051"/>
    <path d="M181.754 122.547C215.031 112.493 248.42 102.859 278.416 90.388C279.121 90.1331 279.804 89.8192 280.457 89.4497C282.339 88.2257 288.118 75.957 288.118 75.957C273.798 72.8642 249.381 72.6729 234.29 78.0537C196.636 91.4783 181.754 122.547 181.754 122.547Z" fill="#3B4051"/>
    <path d="M237.076 74.0036C235.058 74.5855 233.468 75.1306 230.918 75.9431C214.707 70.0119 197.354 65.3963 178.938 61.9707L185.565 60.2881C202.587 63.048 219.649 67.7421 237.076 74.0036Z" fill="#4F5465"/>
    <path d="M162.681 68.5625L157.277 71.3879C167.382 77.154 187.176 81.7329 210.615 85.7377C211.972 84.8177 213.596 83.8611 215.473 82.7655C193.807 78.5536 175.252 73.9407 162.681 68.5625Z" fill="#4F5465"/>
    <path d="M116.547 104.082C123.517 112.27 144.379 116.741 174.497 118.736C174.497 118.736 177.781 110.414 154.186 104.997C129.024 99.2228 116.547 104.082 116.547 104.082Z" fill="#4F5465"/>
    <path d="M231.982 79.8246L234.441 105.282L240.445 103.311L237.436 78.0371C235.655 78.5587 233.854 79.1327 231.982 79.8246Z" fill="#3B4051"/>
    <path d="M273.435 91.5671L277.51 89.9002L272.851 74.7641L269.131 74.4941L273.435 91.5671Z" fill="#3B4051"/>
    <path d="M234.658 77.9961C235.778 86.758 237.665 105.309 237.665 105.309C239.388 107.779 240.155 110.794 239.822 113.791C238.955 122.041 237.845 136.829 238.6 142.472" stroke="#231F32" stroke-width="1.07" stroke-miterlimit="10"/>
    <path d="M181.859 122.45C185.668 126.517 186.394 141.931 188.85 155.925L255.258 137.968C258.064 137.213 260.672 134.737 262.175 131.4L276.357 103.531C277.942 100.019 278.127 95.105 275.788 91.475L270.964 74.1582" stroke="#231F32" stroke-width="1.07" stroke-miterlimit="10"/>
    <path d="M176.069 120.676C176.069 120.676 175.79 122.324 173.31 123.682C170.556 125.192 146.567 135.272 140.56 138.097C133.019 141.638 122.935 144.073 116.284 143.103C105.968 141.599 90.5585 137.599 86.9092 135.765C82.9232 133.765 80.0101 128.95 80.5687 126.591" stroke="#231F32" stroke-width="1.07" stroke-miterlimit="10"/>
    <path d="M305.549 103.274C305.549 103.274 300.482 106.621 299.563 107.468C297.081 109.782 293.998 113.336 293.998 113.336" stroke="#231F32" stroke-width="1.07" stroke-miterlimit="10"/>
    <path d="M145.928 135.699C145.928 135.699 155.064 138.268 157.291 145.502" stroke="#231F32" stroke-width="1.07" stroke-miterlimit="10"/>
    <path opacity="0.1" d="M126.331 171.944C128.309 171.729 117.978 157.267 117.027 156.218C114.746 153.718 107.721 151.239 95.518 148.327C85.04 145.834 82.8395 146.911 81.7301 147.91C81.007 148.563 76.2483 156.087 77.5535 157.083C80.5632 159.421 87.499 162.449 97.5332 165.355C108.39 168.503 124.039 172.191 126.331 171.944Z" fill="black"/>
    <path opacity="0.1" d="M119.631 169.302C121.236 169.606 113.384 165.481 112.64 165.142C110.881 164.356 105.282 162.739 95.5084 160.184C87.1161 157.987 85.2992 157.788 84.3673 157.762C83.7591 157.744 80.3683 157.523 81.2767 158.118C83.1979 159.371 87.6721 161.353 95.6911 163.538C104.371 165.908 117.767 168.951 119.631 169.302Z" fill="black"/>
    <path opacity="0.1" d="M185.32 126.576C232.905 112.546 280.883 93.1242 282.825 92.3064C288.952 89.7484 288.769 82.4123 293.387 85.3897C296.258 87.2244 302.808 100.628 293.998 104.221C290.591 105.611 276.673 103.697 271.363 113.348C262.801 128.903 262.253 133.393 258.604 135.864C255.427 138.019 243.137 141.526 224.526 146.288C214.345 148.896 188.85 155.925 188.85 155.925C187.336 147.449 185.315 139.783 182.266 133.76C181.927 133.096 181.737 132.366 181.71 131.621C181.684 130.875 181.821 130.133 182.113 129.447C182.404 128.761 182.843 128.148 183.397 127.652C183.952 127.156 184.608 126.788 185.32 126.576Z" fill="black"/>
    <path opacity="0.1" d="M147.876 148.858C145.576 153.136 144.22 157.862 143.9 162.713C143.871 163.145 143.75 163.567 143.547 163.949C143.343 164.331 143.061 164.666 142.72 164.931C142.379 165.197 141.985 165.387 141.566 165.488C141.146 165.59 140.71 165.602 140.285 165.523C135.939 164.723 132.209 163.3 129.525 160.823C129.159 160.486 128.868 160.073 128.674 159.614C128.479 159.154 128.385 158.658 128.398 158.159C128.41 157.66 128.529 157.169 128.746 156.72C128.963 156.271 129.273 155.874 129.656 155.555C134.506 151.537 139.922 148.62 145.694 146.395C146.027 146.266 146.391 146.243 146.738 146.327C147.084 146.412 147.397 146.6 147.634 146.868C147.871 147.136 148.022 147.47 148.065 147.825C148.108 148.181 148.042 148.541 147.876 148.858Z" fill="black"/>
    <path opacity="0.1" d="M299.463 116.799C297.636 113.916 297.416 111.578 300.246 109.856C303.076 108.134 304.576 106.216 304.668 109.453C304.758 113.911 303.751 118.322 301.736 122.295C301.69 122.387 301.615 122.461 301.524 122.506C301.433 122.552 301.329 122.568 301.228 122.551C301.128 122.533 301.035 122.484 300.964 122.411C300.893 122.337 300.847 122.242 300.833 122.141C300.674 120.98 300.473 118.388 299.463 116.799Z" fill="black"/>
    <path d="M299.277 93.6483C300.984 97.2159 302.328 100.947 303.289 104.785L305.808 103.335C304.454 97.6217 303.764 94.6704 302.543 93.8815C301.525 93.2289 299.277 93.6483 299.277 93.6483Z" fill="#001230"/>
    <path d="M88.5742 157.01L105.98 161.694V154.337L88.5742 149.653V157.01Z" fill="#001230"/>
    <path d="M87.4785 157.254L104.884 161.938V154.58L87.4785 149.899V157.254Z" fill="white"/>
    <path d="M163.852 82.0713L176.99 85.6044L181.975 81.0308L168.84 77.4951L163.852 82.0713Z" fill="#4F5465"/>
    <path d="M228.028 115.688L237.021 112.375L236.684 114.54L227.537 117.976L228.028 115.688Z" fill="#001230"/>
    <path d="M228.422 115.226L237.418 111.913L237.081 114.078L227.932 117.514L228.422 115.226Z" fill="#3B4051"/>
    <path d="M266.535 101.265L275.424 97.6768L275.155 99.8522L266.115 103.566L266.535 101.265Z" fill="#001230"/>
    <path d="M266.916 100.793L275.805 97.2051L275.536 99.3779L266.496 103.094L266.916 100.793Z" fill="#3B4051"/>
    <path opacity="0.1" d="M186.938 123.003C186.938 123.003 187.131 122.523 189.161 123.907C191.375 125.411 199.397 127.073 201.43 126.266C204.281 125.123 204.497 122.12 203.44 120.995C200.169 117.515 197.669 117.588 196.444 117.648C195.22 117.708 186.938 123.003 186.938 123.003Z" fill="black"/>
    <path d="M183.717 122.014C183.717 122.014 189.89 115.462 192.783 115.415C195.033 115.37 200.285 115.583 201.501 118.56C202.718 121.537 199.045 123.162 194.378 124.124C189.71 125.086 186.52 124.355 185.387 123.742C184.679 123.336 184.1 122.737 183.717 122.014Z" fill="white"/>
    <mask id="mask0_884_667" style="mask-type:luminance" maskUnits="userSpaceOnUse" x="183" y="115" width="19" height="10">
      <path d="M183.717 122.014C183.717 122.014 189.89 115.462 192.783 115.415C195.033 115.37 200.285 115.583 201.501 118.56C202.718 121.537 199.045 123.162 194.378 124.124C189.71 125.086 186.52 124.355 185.387 123.742C184.679 123.336 184.1 122.737 183.717 122.014Z" fill="white"/>
    </mask>
    <g mask="url(#mask0_884_667)">
      <path opacity="0.1" d="M198.792 115.664C198.792 115.664 199.197 118.909 193.971 120.167C191.256 120.82 182.652 122.146 182.652 122.146L184.741 125.959L202.032 126.29L204.271 118.817L201.11 114.529L198.792 115.664Z" fill="black"/>
    </g>
    <path d="M80.2079 126.219C79.3099 128.13 81.7741 133.537 85.7966 135.445C91.6517 138.218 106.079 141.652 116.476 143.334C124.046 144.558 139.97 139.804 146.258 135.699C145.248 134.782 142.126 134.782 139.638 135.513C134.6 137.254 123.715 140.38 117.372 139.458C106.408 137.867 92.2782 134.543 87.4516 132.329C85.0057 131.207 81.4739 126.387 82.9252 122.99C82.0325 123.687 80.6934 125.181 80.2079 126.219Z" fill="#3B4051"/>
    <mask id="mask1_884_667" style="mask-type:luminance" maskUnits="userSpaceOnUse" x="75" y="58" width="232" height="116">
      <path d="M292.75 80.1056C292.75 80.1056 290.946 77.8909 291.183 76.6643C265.5 68.348 212.998 52.0613 180.149 61.6068C146.647 71.3411 113.532 103.862 113.532 103.862C113.532 103.862 93.9259 114.026 84.2206 121.85C73.8261 130.237 73.9436 146.521 76.3138 155.398C78.141 162.263 124.686 172.99 135.331 172.906C138.383 173.543 143.09 173.522 147.652 173.465L149.767 172.906C149.421 168.033 149.731 163.136 150.691 158.347C153.056 146.424 162.999 138.427 171.208 139.788C179.039 141.075 184.346 149.7 181.752 166.676L193.571 161.112C214.497 154.112 235.821 148.375 257.429 143.931L266.077 142.901C266.077 137.604 266.445 132.942 267.888 127.102C270.799 115.326 280.611 108.092 288.594 110.239C296.117 112.262 299.834 120.723 298.547 130.821C301.92 129.081 303.812 127.042 304.862 123.96C306.744 118.422 307.161 111.424 306.882 108.593C306.73 107.135 306.458 105.692 306.07 104.279C303.666 95.2941 297.012 85.1798 292.75 80.1056Z" fill="white"/>
    </mask>
    <g mask="url(#mask1_884_667)">
      <path opacity="0.1" d="M74.6987 149.147C73.7877 121.485 106.663 114.288 128.141 113.85C142.67 98.2789 178.938 53.4289 230.509 58.5293L256.962 54.9858L227.442 51.665L166.584 60.288L64.4844 132.475L74.6987 149.147Z" fill="white"/>
    </g>
    <path d="M117.372 139.457C105.934 137.646 96.1681 135.452 87.4521 132.328L86.2305 135.644C89.9711 137.562 104.48 141.646 116.229 143.315L117.372 139.457Z" fill="#3B4051"/>
    <path opacity="0.1" d="M117.056 140.498C105.855 138.852 96.1939 136.517 87.4779 133.393L86.8984 135.049C92.2001 137.329 104.722 140.771 116.469 142.44L117.056 140.498Z" fill="black"/>
    <path d="M180.138 166.424C182.883 156.137 179.029 146.163 171.531 144.145C164.032 142.128 155.727 148.831 152.982 159.118C150.237 169.404 154.091 179.379 161.59 181.396C169.088 183.414 177.393 176.71 180.138 166.424Z" fill="#3B4051"/>
    <path d="M156.428 160.051C154.379 167.73 157.256 175.176 162.855 176.683C168.454 178.19 174.654 173.184 176.703 165.505C178.752 157.825 175.875 150.377 170.276 148.872C164.677 147.368 158.477 152.358 156.428 160.051Z" fill="white"/>
    <path d="M172.654 162.15L175.22 166.215C175.922 167.329 174.935 169.279 173.716 169.182L169.278 168.828C168.756 168.786 168.179 169.166 167.837 169.795L164.966 175.053C164.183 176.494 162.583 176.279 162.533 174.728L162.35 169.064C162.327 168.39 161.977 167.887 161.46 167.79L157.127 166.972C155.939 166.75 155.939 164.671 157.127 163.809L161.46 160.664C161.728 160.454 161.946 160.189 162.1 159.885C162.254 159.582 162.339 159.248 162.35 158.908L162.533 153.142C162.583 151.569 164.18 150.489 164.966 151.509L167.837 155.228C168.179 155.671 168.746 155.752 169.278 155.419L173.716 152.672C174.935 151.92 175.922 153.338 175.22 154.829L172.654 160.273C172.502 160.563 172.423 160.885 172.423 161.212C172.423 161.538 172.502 161.86 172.654 162.15Z" fill="#3B4051"/>
    <path d="M164.348 162.181C163.899 163.861 164.528 165.489 165.755 165.819C166.982 166.149 168.334 165.054 168.783 163.374C169.232 161.694 168.603 160.063 167.376 159.736C166.149 159.408 164.797 160.501 164.348 162.181Z" fill="white"/>
    <path d="M296.792 134.942C299.537 124.656 295.684 114.681 288.185 112.664C280.686 110.646 272.382 117.35 269.637 127.636C266.891 137.923 270.745 147.897 278.244 149.915C285.743 151.932 294.047 145.229 296.792 134.942Z" fill="#3B4051"/>
    <path d="M273.081 128.564C271.031 136.246 273.908 143.692 279.507 145.199C285.107 146.706 291.306 141.7 293.355 134.021C295.404 126.341 292.528 118.893 286.929 117.388C281.329 115.884 275.14 120.885 273.081 128.564Z" fill="white"/>
    <path d="M289.308 130.666L291.872 134.732C292.577 135.845 291.587 137.793 290.368 137.696L285.931 137.345C285.409 137.303 284.832 137.683 284.49 138.312L281.618 143.569C280.835 145.008 279.235 144.796 279.186 143.244L279.003 137.581C278.979 136.907 278.63 136.401 278.113 136.304L273.779 135.489C272.592 135.266 272.592 133.188 273.779 132.326L278.113 129.18C278.38 128.971 278.598 128.705 278.752 128.402C278.906 128.098 278.991 127.765 279.003 127.424L279.186 121.658C279.235 120.086 280.835 119.006 281.618 120.025L284.49 123.744C284.832 124.187 285.401 124.269 285.931 123.936L290.368 121.189C291.587 120.437 292.577 121.852 291.872 123.346L289.308 128.79C289.157 129.079 289.078 129.401 289.078 129.728C289.078 130.055 289.157 130.377 289.308 130.666Z" fill="#3B4051"/>
    <path d="M281.001 130.695C280.555 132.375 281.184 134.005 282.408 134.336C283.632 134.666 284.987 133.57 285.436 131.89C285.885 130.21 285.256 128.58 284.032 128.252C282.807 127.925 281.45 129.015 281.001 130.695Z" fill="white"/>
    <path d="M116.764 141.467C105.466 139.79 93.9647 137.035 86.8984 133.992" stroke="#231F32" stroke-width="1.07" stroke-miterlimit="10"/>
  </g>
  <defs>
    <clipPath id="clip0_884_667">
      <rect width="272" height="130" fill="white" transform="translate(75 58)"/>
    </clipPath>
  </defs>
</svg>
