<svg width="421" height="236" viewBox="0 0 421 236" fill="none" xmlns="http://www.w3.org/2000/svg">
  <rect width="421" height="236" rx="24" fill="#3B4051" fill-opacity="0.05"/>
  <g clip-path="url(#clip0_884_1351)">
    <path d="M118.028 102.744L122.485 103.933C122.753 104.006 122.991 104.164 123.16 104.385C123.33 104.605 123.422 104.875 123.422 105.152V116.229C123.422 116.539 123.314 116.84 123.116 117.08C122.918 117.32 122.642 117.483 122.337 117.543L121.454 117.716C121.221 117.762 120.981 117.754 120.752 117.695L116.795 116.657C116.411 116.556 116.071 116.332 115.829 116.019C115.587 115.705 115.455 115.321 115.455 114.925V104.996C115.455 104.638 115.534 104.285 115.686 103.961C115.837 103.636 116.058 103.349 116.333 103.119C116.565 102.925 116.839 102.79 117.135 102.724C117.43 102.659 117.736 102.666 118.028 102.744Z" fill="#1D2233"/>
    <mask id="mask0_884_1351" style="mask-type:luminance" maskUnits="userSpaceOnUse" x="115" y="102" width="9" height="16">
      <path d="M118.028 102.744L122.485 103.933C122.753 104.006 122.991 104.164 123.16 104.385C123.33 104.605 123.422 104.875 123.422 105.152V116.229C123.422 116.539 123.314 116.84 123.116 117.08C122.918 117.32 122.642 117.483 122.337 117.543L121.454 117.716C121.221 117.762 120.981 117.754 120.752 117.695L116.795 116.657C116.411 116.556 116.071 116.332 115.829 116.019C115.587 115.705 115.455 115.321 115.455 114.925V104.996C115.455 104.638 115.534 104.285 115.686 103.961C115.837 103.636 116.058 103.349 116.333 103.119C116.565 102.925 116.839 102.79 117.135 102.724C117.43 102.659 117.736 102.666 118.028 102.744Z" fill="white"/>
    </mask>
    <g mask="url(#mask0_884_1351)">
      <path opacity="0.1" d="M123.041 118.317H121.572V105.568L123.041 104.863V118.317Z" fill="black"/>
    </g>
    <g opacity="0.1">
      <path d="M283.22 132.947C275.896 130.99 263.911 130.99 256.587 132.947L112.21 171.505C104.886 173.46 104.886 176.661 112.21 178.616L155.456 190.166C162.779 192.123 174.841 192.439 182.26 190.872C215.865 184.589 296.6 162.4 324.306 152.085C333.716 148.584 326.667 144.383 319.343 142.425L283.22 132.947Z" fill="#001230"/>
    </g>
    <g style="mix-blend-mode:multiply" opacity="0.5">
      <g style="mix-blend-mode:multiply" opacity="0.8">
        <path d="M271.903 136.195C264.577 134.24 252.594 134.24 245.268 136.195L113.782 171.291C106.458 173.246 106.458 176.448 113.782 178.403L146.139 187.033C153.462 188.99 161.269 189.442 165.524 189.155C169.779 188.868 175.057 187.976 184.829 184.599C199.931 179.38 267.779 162.199 278.33 159.474C295.428 155.045 303.153 151.593 305.504 150.009C307.855 148.425 308.74 146.034 301.416 144.078L271.903 136.195Z" fill="#001230"/>
      </g>
    </g>
    <path d="M262.677 137.41C260.485 145.568 263.564 153.479 269.557 155.079C275.549 156.68 282.183 151.363 284.369 143.203C286.555 135.043 283.485 127.135 277.492 125.534C271.499 123.933 264.87 129.242 262.677 137.41Z" fill="#1D2233"/>
    <path d="M269.542 155.078L278.387 157.44L286.33 127.895L277.485 125.533L269.542 155.078Z" fill="#1D2233"/>
    <path d="M153.298 166.635C151.106 174.795 154.185 182.706 160.178 184.307C166.171 185.907 172.804 180.588 174.99 172.431C177.176 164.273 174.104 156.362 168.111 154.761C162.118 153.16 155.493 158.477 153.298 166.635Z" fill="#1D2233"/>
    <path d="M159.177 183.551L168.059 185.924L176.038 156.254L167.156 153.881L159.177 183.551Z" fill="#1D2233"/>
    <path d="M295.113 141.595L284.023 140.3L196.697 162.187L185.634 176.113L161.625 172.224L163.991 151.912L300.803 115.215L301.423 130.219L295.113 141.595Z" fill="#1D2233"/>
    <path d="M308.636 115.214C308.636 115.214 305.138 59.8877 302.287 58.9492C295.641 56.6292 253.658 44.3546 250.249 45.2573C246.84 46.16 166.516 67.6342 148.959 72.833C140.617 75.2985 134.307 84.8946 134.307 84.8946L113.913 117.391C113.913 117.391 105.381 125.025 98.5985 131.207C95.4688 134.063 95.4583 134.938 94.906 138.848C94.7959 139.626 92.9169 143.041 92.7899 143.83C91.1901 153.147 92.2249 161.95 94.578 168.134C96.6771 173.647 133.382 182.433 144.287 183.045C148.942 183.307 154.004 182.549 157.914 181.472C157.615 177.277 157.884 173.062 158.714 168.94C160.767 158.675 169.39 151.797 176.51 152.962C183.292 154.071 187.901 161.495 185.654 176.108L266.976 151.987C266.976 151.987 267.296 143.412 268.547 138.386C271.069 128.25 279.582 122.022 286.504 123.872C293.027 125.614 296.25 132.894 295.133 141.588C297.386 139.525 303.426 137.699 307.027 133.491C308.331 131.97 310.284 127.423 310.278 119.582C310.256 117.148 308.636 115.214 308.636 115.214Z" fill="white"/>
    <path opacity="0.1" d="M133.786 176.904C135.199 176.562 131.168 169.959 130.569 168.763C125.476 158.602 116.603 157.868 107.525 155.44C99.3868 153.264 98.3583 157.475 97.514 159.625C97.1882 160.453 96.0476 164.627 97.0782 165.53C99.4714 167.639 104.772 170.147 112.314 172.338C120.467 174.711 132.146 177.298 133.786 176.904Z" fill="black"/>
    <path d="M180.595 97.152C161.626 94.2288 141.504 88.5049 134.297 84.8984C134.297 84.8984 119.707 107.779 113.902 117.395C120.587 122.878 148.062 129.564 163.509 130.641L180.595 97.152Z" fill="#3B4051"/>
    <path d="M169.488 130.994L214.063 118.393V92.1055L189.113 98.8249C187.843 99.1705 186.66 99.7792 185.643 100.611C184.625 101.444 183.795 102.481 183.207 103.655L169.488 130.994Z" fill="#3B4051"/>
    <path opacity="0.1" d="M99.7474 168.934C104.86 171.756 121.003 176.482 128.621 177.222C133.93 177.739 133.564 175.335 130.344 174.715C120.591 172.831 105.332 168.698 99.6607 166.19C97.6398 165.291 97.7795 167.848 99.7474 168.934Z" fill="black"/>
    <g opacity="0.1">
      <path d="M182.638 67.6344L179.885 66.8983L242.556 50.1631L245.309 50.897L182.638 67.6344Z" fill="black"/>
      <path d="M190.493 69.7332L187.74 68.9971L250.414 52.2598L253.167 52.9958L190.493 69.7332Z" fill="black"/>
      <path d="M198.349 71.8318L195.596 71.0957L258.27 54.3584L261.023 55.0945L198.349 71.8318Z" fill="black"/>
      <path d="M206.206 73.9273L203.453 73.1934L266.125 56.4561L268.878 57.19L206.206 73.9273Z" fill="black"/>
      <path d="M214.061 76.026L211.311 75.292L273.982 58.5547L276.735 59.2886L214.061 76.026Z" fill="black"/>
    </g>
    <path d="M212.691 117.351L210.492 117.937V95.0855L212.691 94.4971V117.351Z" fill="#4F5465"/>
    <path d="M115.455 116.346C121.238 119.541 142.118 126.277 163.511 128.806C163.511 128.806 166.945 123.833 164.686 122.201C157.068 116.717 145.357 119.332 136.601 117.35C116.532 112.765 115.455 116.346 115.455 116.346Z" fill="#4F5465"/>
    <path d="M142.879 96.9503L153.36 99.7489L155.766 95.7059L145.285 92.9072L142.879 96.9503Z" fill="#4F5465"/>
    <path d="M173.01 128.514L178.774 126.717L177.885 118.793L173.01 128.514Z" fill="#1D2233"/>
    <path opacity="0.1" d="M173.01 128.512L211.59 94.8535L189.991 100.67C188.892 100.97 187.869 101.497 186.988 102.217C186.107 102.937 185.388 103.835 184.879 104.85L173.01 128.512Z" fill="white"/>
    <mask id="mask1_884_1351" style="mask-type:luminance" maskUnits="userSpaceOnUse" x="92" y="45" width="219" height="139">
      <path d="M308.636 115.214C308.636 115.214 305.138 59.8877 302.287 58.9492C295.641 56.6292 253.658 44.3546 250.249 45.2573C246.84 46.16 166.516 67.6342 148.959 72.833C140.617 75.2985 134.307 84.8946 134.307 84.8946L113.913 117.391C113.913 117.391 105.381 125.025 98.5985 131.207C95.4688 134.063 95.363 135.402 94.906 138.848C94.8023 139.628 92.9169 143.041 92.7899 143.83C91.1901 153.147 92.2249 161.95 94.578 168.134C96.6771 173.647 133.382 182.433 144.287 183.045C148.942 183.307 154.004 182.549 157.914 181.472C157.615 177.277 157.884 173.062 158.714 168.94C160.767 158.675 169.39 151.797 176.51 152.962C183.292 154.071 187.901 161.495 185.654 176.108L266.976 151.987C266.976 151.987 267.296 143.412 268.547 138.386C271.069 128.25 279.582 122.022 286.504 123.872C293.027 125.614 296.25 132.894 295.133 141.588C297.386 139.525 303.426 137.699 307.027 133.491C308.331 131.97 310.284 127.423 310.278 119.582C310.256 117.148 308.636 115.214 308.636 115.214Z" fill="white"/>
    </mask>
    <g mask="url(#mask1_884_1351)">
      <path opacity="0.1" d="M307.401 57.7012C307.401 57.7012 202.01 86.2913 197.391 88.0713C192.772 89.8514 187.742 92.5488 183.393 98.7051C179.045 104.861 169.486 124.041 166.088 129.835C163.144 134.856 155.144 141.116 151.064 143.678C146.021 146.842 151.796 147.515 148.592 151.511C134.522 169.056 149.015 183.91 139.095 182.449C135.17 181.871 141.106 189.714 142.889 188.738C144.673 187.761 314.74 140.289 314.74 140.289L307.401 57.7012Z" fill="black"/>
      <path opacity="0.1" d="M153.633 70.1738C144.267 77.0556 140.454 80.7549 126.996 123.653C112.905 127.542 108.105 128.503 92 134.698L135.693 73.0484L153.633 70.1738Z" fill="white"/>
    </g>
    <path opacity="0.1" d="M183.713 145.213C221.676 134.1 270.58 119.533 307.404 107.577V115.621L296.61 120.115C296.61 120.115 290.685 120.813 283.203 119.542C280.416 119.067 273.346 121.585 268.705 128.988C264.628 135.492 264.304 148.206 259.917 149.756C255.211 151.42 189.935 170.713 189.935 170.713C188.726 164 188.343 157.654 183.275 152.481C180.142 149.294 181.284 145.93 183.713 145.213Z" fill="black"/>
    <path opacity="0.1" d="M303.382 101.082L160.883 141.731L160.854 140.025C160.849 139.737 160.94 139.456 161.112 139.224C161.284 138.993 161.528 138.824 161.806 138.745L301.691 98.8418C301.886 98.7833 302.092 98.7707 302.292 98.8051C302.493 98.8394 302.683 98.9199 302.847 99.04C303.011 99.1601 303.144 99.3165 303.237 99.497C303.33 99.6775 303.38 99.877 303.382 100.08V101.082Z" fill="black"/>
    <path opacity="0.3" d="M302.439 104.03L162.552 143.935C162.358 143.99 162.155 144 161.957 143.964C161.759 143.928 161.572 143.847 161.41 143.728C161.248 143.609 161.116 143.454 161.024 143.275C160.932 143.097 160.882 142.9 160.878 142.699L160.861 141.696L303.36 101.046L303.389 102.75C303.395 103.038 303.305 103.32 303.133 103.551C302.961 103.783 302.717 103.951 302.439 104.03Z" fill="white"/>
    <path opacity="0.1" d="M156.422 164.095C154.953 168.275 154.116 172.649 153.939 177.074C153.867 178.791 152.807 180.016 151.686 179.706C148.971 178.957 146.645 177.622 144.969 175.304C144 173.963 144.036 171.633 145.052 170.369C147.818 166.908 151.213 163.997 155.059 161.788C156 161.241 156.893 162.751 156.422 164.095Z" fill="black"/>
    <path opacity="0.1" d="M218.953 115.704L255.026 105.467L254.564 82.8262L219.099 92.319L218.953 115.704Z" fill="black"/>
    <path opacity="0.1" d="M257.277 104.719L295.307 93.9989C295.935 93.8226 296.492 93.4575 296.903 92.9535C297.314 92.4495 297.558 91.8312 297.603 91.1833L299.085 70.1836L257.428 81.7833L257.277 104.719Z" fill="black"/>
    <path d="M292.794 104.52L256.154 114.881V111.709L292.794 101.348V104.52Z" fill="#3B4051"/>
    <path d="M180.594 97.1527C180.594 97.1527 186.354 87.4511 194.331 84.9961C202.309 82.5412 296.609 57.334 296.609 57.334" stroke="#231F32" stroke-width="1.06" stroke-miterlimit="10"/>
    <path d="M308.038 106.483C308.038 106.483 164.731 149.324 159.815 150.813C157.155 151.619 151.055 146.142 151.055 146.142" stroke="#231F32" stroke-width="1.06" stroke-miterlimit="10"/>
    <path d="M167.832 67.5225L213.448 79.7022C216.14 80.4213 216.923 81.691 217.126 84.5529C217.329 87.4149 217.399 91.2006 217.399 91.2006" stroke="#231F32" stroke-width="1.06" stroke-miterlimit="10"/>
    <path d="M163.509 130.743C163.52 132.469 162.842 134.129 161.626 135.358C160.699 136.282 153.964 142.318 150.557 143.946C145.421 146.399 140.207 146.477 134.087 145.728C127.4 144.918 93.7994 137.292 96.8317 133.209" stroke="#231F32" stroke-width="1.06" stroke-miterlimit="10"/>
    <path d="M256.155 80.7549V150.931L217.389 162.725V91.2094" stroke="#231F32" stroke-width="1.06" stroke-miterlimit="10"/>
    <path d="M214.065 92.1055V163.724L189.925 170.714C187.917 155.87 184.58 153.057 181.16 151.005C180.464 150.588 179.874 150.015 179.438 149.332C179.001 148.649 178.73 147.875 178.646 147.069L175.707 118.597" stroke="#231F32" stroke-width="1.06" stroke-miterlimit="10"/>
    <path d="M189.179 98.8145L300.272 68.8535L298.99 90.8297C298.929 91.8837 298.54 92.8926 297.877 93.7161C297.214 94.5397 296.31 95.1371 295.291 95.4253L169.484 130.992L183.165 103.716C183.764 102.522 184.609 101.469 185.646 100.624C186.682 99.7791 187.886 99.1625 189.179 98.8145Z" stroke="#231F32" stroke-width="1.06" stroke-miterlimit="10"/>
    <path d="M93.7988 166.282C96.0419 169.446 125.005 177.882 138.742 178.926C143.865 179.316 149.479 178.255 154.035 177.059C155.552 176.661 156.953 176.247 158.18 175.868" stroke="#231F32" stroke-width="1.06" stroke-miterlimit="10"/>
    <path d="M176.005 117.773L180.461 118.962C180.73 119.035 180.967 119.194 181.137 119.414C181.306 119.634 181.398 119.904 181.399 120.181V131.258C181.4 131.569 181.292 131.869 181.094 132.109C180.896 132.349 180.621 132.513 180.315 132.572L179.431 132.745C179.198 132.791 178.958 132.784 178.728 132.724L174.773 131.686C174.389 131.586 174.049 131.362 173.806 131.049C173.563 130.735 173.431 130.351 173.432 129.955V120.025C173.432 119.668 173.51 119.314 173.662 118.99C173.814 118.666 174.035 118.378 174.31 118.148C174.541 117.954 174.816 117.819 175.111 117.754C175.406 117.688 175.713 117.695 176.005 117.773Z" fill="#1D2233"/>
    <mask id="mask2_884_1351" style="mask-type:luminance" maskUnits="userSpaceOnUse" x="173" y="117" width="9" height="16">
      <path d="M176.005 117.773L180.461 118.962C180.73 119.035 180.967 119.194 181.137 119.414C181.306 119.634 181.398 119.904 181.399 120.181V131.258C181.4 131.569 181.292 131.869 181.094 132.109C180.896 132.349 180.621 132.513 180.315 132.572L179.431 132.745C179.198 132.791 178.958 132.784 178.728 132.724L174.773 131.686C174.389 131.586 174.049 131.362 173.806 131.049C173.563 130.735 173.431 130.351 173.432 129.955V120.025C173.432 119.668 173.51 119.314 173.662 118.99C173.814 118.666 174.035 118.378 174.31 118.148C174.541 117.954 174.816 117.819 175.111 117.754C175.406 117.688 175.713 117.695 176.005 117.773Z" fill="white"/>
    </mask>
    <g mask="url(#mask2_884_1351)">
      <path opacity="0.1" d="M181.019 133.346H179.551V120.597L181.019 119.893V133.346Z" fill="black"/>
    </g>
    <path d="M132.602 145.249C121.666 143.117 111.888 140.738 104.035 137.943L104.361 143.638C111.147 145.958 120.111 148.067 130.01 150.07L132.602 145.249Z" fill="#3B4051"/>
    <path d="M118.241 139.918C117.723 140.81 116.709 141.183 115.981 140.761C115.253 140.34 115.082 139.27 115.601 138.378C116.119 137.486 117.135 137.113 117.863 137.535C118.59 137.957 118.762 139.024 118.241 139.918Z" fill="#43596D"/>
    <path d="M97.0973 132.771C95.8277 134.726 100.079 136.288 104.036 137.94L104.362 143.634C99.3489 141.995 96.0034 140.116 94.8945 138.853C94.8945 136.649 95.4362 134.116 97.0973 132.771Z" fill="#3B4051"/>
    <path d="M130.012 150.064L132.602 145.247C136.622 146.162 144.17 146.234 148.485 143.948C150.743 142.754 152.112 145.331 150.411 147.248C147.247 150.812 138.584 151.84 130.012 150.064Z" fill="#3B4051"/>
    <path d="M183.606 174.727C185.799 166.569 182.719 158.659 176.727 157.058C170.735 155.458 164.1 160.774 161.907 168.933C159.714 177.091 162.793 185.001 168.785 186.602C174.777 188.202 181.412 182.886 183.606 174.727Z" fill="#3B4051"/>
    <path d="M164.661 169.678C163.023 175.769 165.321 181.674 169.795 182.87C174.268 184.065 179.222 180.094 180.86 174.012C182.497 167.929 180.199 162.015 175.726 160.82C171.253 159.624 166.297 163.578 164.661 169.678Z" fill="white"/>
    <path d="M177.625 171.336L179.674 174.56C180.237 175.444 179.447 176.988 178.472 176.912L174.921 176.631C174.498 176.598 174.043 176.901 173.77 177.397L171.482 181.569C170.848 182.712 169.578 182.543 169.54 181.311L169.394 176.819C169.375 176.283 169.095 175.885 168.683 175.807L165.219 175.161C164.271 174.984 164.271 173.335 165.219 172.65L168.683 170.155C168.896 169.988 169.07 169.778 169.193 169.537C169.316 169.297 169.384 169.032 169.394 168.763L169.54 164.192C169.58 162.939 170.856 162.083 171.482 162.897L173.77 165.85C174.043 166.202 174.496 166.272 174.921 166.002L178.472 163.825C179.447 163.228 180.237 164.353 179.674 165.536L177.625 169.853C177.505 170.082 177.442 170.336 177.442 170.594C177.442 170.853 177.505 171.107 177.625 171.336Z" fill="#3B4051"/>
    <path d="M170.986 171.365C170.629 172.698 171.13 173.988 172.11 174.25C173.09 174.512 174.171 173.645 174.531 172.312C174.891 170.979 174.385 169.688 173.407 169.427C172.43 169.165 171.338 170.026 170.986 171.365Z" fill="white"/>
    <path d="M271.288 139.701C269.093 147.861 272.174 155.772 278.165 157.37C284.155 158.969 290.794 153.654 292.977 145.496C295.161 137.339 292.093 129.426 286.1 127.827C280.107 126.228 273.482 131.543 271.288 139.701Z" fill="#3B4051"/>
    <path d="M274.036 140.434C272.398 146.524 274.698 152.432 279.172 153.626C283.645 154.819 288.599 150.852 290.236 144.768C291.874 138.683 289.574 132.769 285.101 131.576C280.627 130.382 275.674 134.343 274.036 140.434Z" fill="white"/>
    <path d="M287.002 142.101L289.051 145.326C289.611 146.209 288.824 147.755 287.849 147.677L284.296 147.399C283.873 147.365 283.42 147.667 283.147 148.165L280.859 152.334C280.225 153.477 278.955 153.308 278.917 152.077L278.769 147.587C278.752 147.051 278.472 146.65 278.058 146.574L274.596 145.927C273.648 145.75 273.648 144.1 274.596 143.417L278.058 140.92C278.272 140.755 278.447 140.544 278.57 140.303C278.693 140.063 278.76 139.798 278.769 139.528L278.917 134.96C278.957 133.707 280.233 132.851 280.859 133.665L283.147 136.618C283.42 136.97 283.873 137.039 284.296 136.769L287.849 134.591C288.824 133.994 289.611 135.118 289.051 136.301L287.002 140.621C286.882 140.849 286.819 141.103 286.819 141.361C286.819 141.619 286.882 141.873 287.002 142.101Z" fill="#3B4051"/>
    <path d="M280.365 142.125C280.008 143.456 280.509 144.748 281.489 145.01C282.469 145.272 283.55 144.403 283.908 143.07C284.265 141.737 283.764 140.446 282.786 140.184C281.808 139.923 280.723 140.783 280.365 142.125Z" fill="white"/>
    <path d="M211.683 132.294L209.484 133.951V123.862L211.683 122.204V132.294Z" fill="#1D2233"/>
    <path d="M221.376 129.632L219.178 131.289V121.2L221.376 119.542V129.632Z" fill="#1D2233"/>
    <path d="M306.943 92.2754L308.039 106.492L304.766 107.471L304.391 96.3669C304.363 95.5587 304.564 94.759 304.97 94.059C305.377 93.359 305.972 92.787 306.689 92.4083L306.943 92.2754Z" fill="#1D2233"/>
    <path d="M105.207 163.949L119.317 167.718V161.798L105.207 158.029V163.949Z" fill="#001230"/>
    <path d="M104.32 164.146L118.43 167.914V161.994L104.32 158.228V164.146Z" fill="white"/>
  </g>
  <defs>
    <clipPath id="clip0_884_1351">
      <rect width="237" height="147" fill="white" transform="translate(92 45)"/>
    </clipPath>
  </defs>
</svg>
