<svg width="32" height="32" viewBox="0 0 32 32" fill="none" xmlns="http://www.w3.org/2000/svg">
<g id="vk">
<path id="bg" d="M0 16C0 24.8366 7.16344 32 16 32C24.8366 32 32 24.8366 32 16C32 7.16344 24.8366 0 16 0C7.16344 0 0 7.16344 0 16Z" fill="#0077FF"/>
<path id="Vector" d="M16.7113 21C11.2448 21 8.12787 17.6277 8 12.0072H10.7493C10.8372 16.1289 12.8511 17.8727 14.4496 18.233V12.0072H17.031V15.5596C18.6054 15.4083 20.2677 13.787 20.8272 12H23.4006C23.1908 12.9251 22.7716 13.8012 22.1693 14.5736C21.567 15.346 20.7945 15.9981 19.9001 16.4892C20.8982 16.9371 21.7797 17.5707 22.4864 18.3483C23.1931 19.1258 23.709 20.0296 24 21H21.1628C20.5554 19.2922 19.037 17.9664 17.031 17.7862V21H16.7193H16.7113Z" fill="#F2F3F5"/>
</g>
</svg>
