<svg width="32" height="32" viewBox="0 0 32 32" fill="none" xmlns="http://www.w3.org/2000/svg">
<g id="Youtube">
<path id="back" fill-rule="evenodd" clip-rule="evenodd" d="M0 16C0 7.16344 7.16344 0 16 0C24.8366 0 32 7.16344 32 16C32 24.8366 24.8366 32 16 32C7.16344 32 0 24.8366 0 16Z" fill="#FF0000"/>
<path id="Fill 1" fill-rule="evenodd" clip-rule="evenodd" d="M24.1749 12.0483C23.9786 11.2943 23.4003 10.7005 22.6659 10.499C21.3351 10.1328 15.9982 10.1328 15.9982 10.1328C15.9982 10.1328 10.6613 10.1328 9.33035 10.499C8.596 10.7005 8.01767 11.2943 7.8214 12.0483C7.46484 13.4148 7.46484 16.2661 7.46484 16.2661C7.46484 16.2661 7.46484 19.1174 7.8214 20.484C8.01767 21.238 8.596 21.8317 9.33035 22.0334C10.6613 22.3995 15.9982 22.3995 15.9982 22.3995C15.9982 22.3995 21.3351 22.3995 22.6659 22.0334C23.4003 21.8317 23.9786 21.238 24.1749 20.484C24.5315 19.1174 24.5315 16.2661 24.5315 16.2661C24.5315 16.2661 24.5315 13.4148 24.1749 12.0483Z" fill="white"/>
<path id="Fill 2" fill-rule="evenodd" clip-rule="evenodd" d="M14.3984 19.2005V13.8672L18.6651 16.534L14.3984 19.2005Z" fill="#FF0000"/>
</g>
</svg>
