<svg width="210" height="57" viewBox="0 0 210 57" fill="none" xmlns="http://www.w3.org/2000/svg">
<g id="Group 1948754598">
<g id="Clip path group">
<mask id="mask0_820_7698" style="mask-type:luminance" maskUnits="userSpaceOnUse" x="0" y="17" width="52" height="40">
<g id="clip-path">
<path id="Vector" d="M36.0029 19.328L5.14404 37.1423C2.78126 38.5062 1.05707 40.7529 0.350749 43.388C-0.355568 46.0232 0.0138568 48.831 1.37775 51.1938C2.74164 53.5565 4.98829 55.2807 7.62344 55.987C10.2586 56.6934 13.0664 56.3239 15.4292 54.96L46.2915 37.1423C47.4612 36.4668 48.4864 35.5674 49.3085 34.4957C50.1306 33.4239 50.7336 32.2007 51.083 30.8959C51.4325 29.5911 51.5214 28.2303 51.3449 26.8911C51.1684 25.5519 50.7299 24.2606 50.0543 23.0909C49.3788 21.9212 48.4794 20.896 47.4077 20.0739C46.3359 19.2517 45.1127 18.6487 43.8079 18.2993C42.5031 17.9499 41.1423 17.8609 39.8031 18.0374C38.4639 18.2139 37.1726 18.6525 36.0029 19.328Z" fill="white"/>
</g>
</mask>
<g mask="url(#mask0_820_7698)">
<g id="Group">
<path id="Vector_2" d="M39.3045 -5.59055L-18.7188 27.9092L12.1264 81.3345L70.1496 47.8348L39.3045 -5.59055Z" fill="url(#paint0_linear_820_7698)"/>
</g>
</g>
</g>
<g id="Clip path group_2">
<mask id="mask1_820_7698" style="mask-type:luminance" maskUnits="userSpaceOnUse" x="0" y="0" width="52" height="39">
<g id="clip-path-2">
<path id="Vector_3" d="M1.37185 5.27669C0.0126714 7.64076 -0.354487 10.447 0.350748 13.0812C1.05598 15.7154 2.77616 17.9628 5.1347 19.3316L35.9936 37.1458C38.3559 38.5102 41.1634 38.8802 43.7986 38.1746C46.4337 37.4689 48.6806 35.7453 50.045 33.383C51.4093 31.0207 51.7794 28.2131 51.0737 25.578C50.368 22.9428 48.6445 20.6959 46.2821 19.3316L15.4198 1.51384C14.2496 0.838052 12.9576 0.399733 11.6178 0.223986C10.2779 0.0482389 8.91659 0.138515 7.61169 0.489639C6.30678 0.840763 5.08396 1.44584 4.01323 2.27022C2.94251 3.0946 2.04491 4.1221 1.37185 5.29387" fill="white"/>
</g>
</mask>
<g mask="url(#mask1_820_7698)">
<g id="Group_2">
<path id="Vector_4" d="M12.1264 -23.4048L-18.7188 30.0205L39.3045 63.5202L70.1496 10.0949L12.1264 -23.4048Z" fill="url(#paint1_linear_820_7698)"/>
</g>
</g>
</g>
<g id="Clip path group_3">
<mask id="mask2_820_7698" style="mask-type:luminance" maskUnits="userSpaceOnUse" x="0" y="0" width="21" height="57">
<g id="clip-path-3">
<path id="Vector_5" d="M0 10.4189V46.0509C0 48.7787 1.08361 51.3948 3.01245 53.3236C4.94129 55.2525 7.55735 56.3361 10.2851 56.3361C13.0129 56.3361 15.629 55.2525 17.5578 53.3236C19.4867 51.3948 20.5703 48.7787 20.5703 46.0509V10.4189C20.5703 7.69114 19.4867 5.07507 17.5578 3.14624C15.629 1.2174 13.0129 0.133789 10.2851 0.133789C7.55735 0.133789 4.94129 1.2174 3.01245 3.14624C1.08361 5.07507 0 7.69114 0 10.4189Z" fill="white"/>
</g>
</mask>
<g mask="url(#mask2_820_7698)">
<g id="Group_3">
<path id="Vector_6" d="M20.5703 0.128906H0V56.3346H20.5703V0.128906Z" fill="url(#paint2_linear_820_7698)"/>
</g>
</g>
</g>
<path id="Vector_7" d="M93.0729 29.6956V29.4997H104.757V25.9259H93.0729V23.3932H107.265V19.4964H86.8049V29.4035C86.8049 32.3897 87.7774 34.5031 89.7602 35.6371C92.1313 37.0117 95.9973 36.9705 101.485 36.9705H107.688V32.8983H97.7533C94.3409 32.8983 93.0764 31.8915 93.0764 29.6853M187.887 25.0393C187.887 21.1115 185.289 19.4861 179.117 19.4861H166.138V35.6612C166.138 36.7333 167.894 37.1217 169.289 37.1217C170.684 37.1217 172.409 36.7333 172.409 35.6612V30.7987H177.993L179.684 33.754C181.241 36.4825 182.186 36.9705 185.564 36.9705H188.292L183.852 29.919C186.567 29.1561 187.869 27.7747 187.869 25.0496M178.124 27.2283H172.423V23.3932H178.137C180.282 23.3932 181.55 23.7197 181.55 25.2764C181.55 26.9018 180.282 27.2283 178.137 27.2283M71.3446 28.8606V16.4895C71.3446 15.2971 69.5886 14.8916 68.0525 14.8916C66.4546 14.8916 64.6367 15.2971 64.6367 16.4895V29.6853C64.6367 32.5684 65.5783 34.6028 67.4889 35.7024C69.7776 37.0186 73.5061 36.9876 78.8016 36.9876H80.4338C83.2551 36.9876 84.664 35.3897 85.0386 33.132L85.1039 32.754H76.3892C72.2827 32.754 71.3446 31.5959 71.3446 28.8674M123.798 26.9087L116.849 19.4964H111.007V35.6715C111.007 36.8399 112.568 37.2282 113.897 37.2282C115.227 37.2282 116.791 36.8399 116.791 35.6715V25.9602L123.805 33.266L130.822 25.9602V35.7024C130.822 36.8742 132.347 37.2282 133.746 37.2282C135.145 37.2282 136.602 36.8845 136.602 35.7024V19.4964H130.743L123.798 26.9087ZM151.244 19.005C150.076 19.005 148.495 19.2971 147.464 20.9534L137.784 36.967H142.736L144.904 33.3279H156.045L158.196 36.967H164.952L154.986 20.6304C154.076 19.1665 152.42 19.005 151.251 19.005M147.031 29.7609L150.499 23.9637L153.935 29.7781L147.031 29.7609ZM201.557 23.5548H210V19.4964H204.089C198.591 19.4964 196.361 19.627 193.99 20.9912C192.007 22.1252 191.031 24.084 191.031 27.0633V29.4035C191.031 32.3897 192.007 34.3382 193.99 35.4756C196.361 36.8502 198.601 36.9705 204.089 36.9705H210V32.8983H201.557C199.055 32.8983 197.368 32.0564 197.368 29.2935V26.8262C197.368 24.3898 199.055 23.5444 201.557 23.5444" fill="#ED1A3B"/>
</g>
<defs>
<linearGradient id="paint0_linear_820_7698" x1="2.0011" y1="52.2601" x2="50.7013" y2="24.143" gradientUnits="userSpaceOnUse">
<stop stop-color="#4394D0"/>
<stop offset="0.16" stop-color="#4394D0"/>
<stop offset="0.66" stop-color="#05509E"/>
<stop offset="1" stop-color="#05509E"/>
</linearGradient>
<linearGradient id="paint1_linear_820_7698" x1="0.69302" y1="6.35289" x2="49.3932" y2="34.47" gradientUnits="userSpaceOnUse">
<stop stop-color="#EB1C3C"/>
<stop offset="0.15" stop-color="#E71D3E"/>
<stop offset="0.28" stop-color="#DD1F42"/>
<stop offset="0.41" stop-color="#CA234A"/>
<stop offset="0.54" stop-color="#B12955"/>
<stop offset="0.66" stop-color="#903163"/>
<stop offset="0.78" stop-color="#673A74"/>
<stop offset="0.89" stop-color="#384588"/>
<stop offset="1" stop-color="#05509E"/>
</linearGradient>
<linearGradient id="paint2_linear_820_7698" x1="9.66054" y1="56.406" x2="9.66054" y2="0.171789" gradientUnits="userSpaceOnUse">
<stop stop-color="#F89820"/>
<stop offset="0.13" stop-color="#F78B23"/>
<stop offset="0.38" stop-color="#F3672B"/>
<stop offset="0.71" stop-color="#ED2F38"/>
<stop offset="0.82" stop-color="#EB1C3C"/>
<stop offset="1" stop-color="#EB1C3C"/>
</linearGradient>
</defs>
</svg>
