<svg width="150" height="41" viewBox="0 0 150 41" fill="none" xmlns="http://www.w3.org/2000/svg">
<g id="Logo" clip-path="url(#clip0_509_2666)">
<g id="Clip path group">
<mask id="mask0_509_2666" style="mask-type:luminance" maskUnits="userSpaceOnUse" x="0" y="12" width="37" height="29">
<g id="clip-path">
<path id="Vector" d="M25.7163 13.873L3.67431 26.5975C1.98662 27.5717 0.755046 29.1765 0.250535 31.0587C-0.253977 32.941 0.00989768 34.9466 0.984108 36.6343C1.95832 38.322 3.56306 39.5535 5.44531 40.0581C7.32757 40.5626 9.33315 40.2987 11.0208 39.3245L33.0653 26.5975C33.9008 26.115 34.6331 25.4726 35.2204 24.7071C35.8076 23.9415 36.2383 23.0678 36.4879 22.1358C36.7375 21.2038 36.801 20.2318 36.675 19.2752C36.5489 18.3187 36.2356 17.3963 35.7531 16.5608C35.2705 15.7253 34.6282 14.993 33.8626 14.4058C33.0971 13.8185 32.2234 13.3878 31.2914 13.1383C30.3594 12.8887 29.3873 12.8251 28.4308 12.9512C27.4742 13.0773 26.5518 13.3905 25.7163 13.873Z" fill="white"/>
</g>
</mask>
<g mask="url(#mask0_509_2666)">
<g id="Group">
<path id="Vector_2" d="M28.076 -3.92593L-13.3691 20.0024L8.66308 58.1634L50.1082 34.235L28.076 -3.92593Z" fill="url(#paint0_linear_509_2666)"/>
</g>
</g>
</g>
<g id="Clip path group_2">
<mask id="mask1_509_2666" style="mask-type:luminance" maskUnits="userSpaceOnUse" x="0" y="0" width="37" height="28">
<g id="clip-path-2">
<path id="Vector_3" d="M0.979892 3.83694C0.009051 5.52556 -0.253205 7.53004 0.250534 9.41159C0.754274 11.2931 1.98297 12.8985 3.66765 13.8761L25.7097 26.6006C27.3971 27.5752 29.4024 27.8395 31.2847 27.3354C33.167 26.8314 34.7719 25.6002 35.7464 23.9129C36.721 22.2255 36.9853 20.2201 36.4812 18.3378C35.9772 16.4556 34.746 14.8507 33.0587 13.8761L11.0142 1.14918C10.1783 0.66648 9.25545 0.353395 8.29842 0.227861C7.34139 0.102327 6.36899 0.166811 5.43692 0.417613C4.50485 0.668416 3.6314 1.10061 2.8666 1.68946C2.10179 2.2783 1.46065 3.01223 0.979892 3.84921" fill="white"/>
</g>
</mask>
<g mask="url(#mask1_509_2666)">
<g id="Group_2">
<path id="Vector_4" d="M8.66308 -16.6502L-13.3691 21.5107L28.076 45.4391L50.1082 7.27819L8.66308 -16.6502Z" fill="url(#paint1_linear_509_2666)"/>
</g>
</g>
</g>
<g id="Clip path group_3">
<mask id="mask2_509_2666" style="mask-type:luminance" maskUnits="userSpaceOnUse" x="0" y="0" width="15" height="41">
<g id="clip-path-3">
<path id="Vector_5" d="M0 7.50962V32.961C0 34.9095 0.774007 36.7781 2.15175 38.1558C3.52949 39.5336 5.39811 40.3076 7.34653 40.3076C9.29495 40.3076 11.1636 39.5336 12.5413 38.1558C13.919 36.7781 14.6931 34.9095 14.6931 32.961V7.50962C14.6931 5.56119 13.919 3.69258 12.5413 2.31483C11.1636 0.937093 9.29495 0.163086 7.34653 0.163086C5.39811 0.163086 3.52949 0.937093 2.15175 2.31483C0.774007 3.69258 0 5.56119 0 7.50962Z" fill="white"/>
</g>
</mask>
<g mask="url(#mask2_509_2666)">
<g id="Group_3">
<path id="Vector_6" d="M14.6931 0.159668H0V40.3066H14.6931V0.159668Z" fill="url(#paint2_linear_509_2666)"/>
</g>
</g>
</g>
<path id="Vector_7" d="M66.4815 21.2784V21.1385H74.827V18.5857H66.4815V16.7767H76.6189V13.9932H62.0044V21.0697C62.0044 23.2028 62.699 24.7123 64.1153 25.5223C65.8089 26.5042 68.5703 26.4747 72.4903 26.4747H76.9208V23.566H69.8246C67.3872 23.566 66.4839 22.8469 66.4839 21.271M134.206 17.9524C134.206 15.1469 132.35 13.9859 127.941 13.9859H118.671V25.5395C118.671 26.3053 119.925 26.5827 120.921 26.5827C121.918 26.5827 123.15 26.3053 123.15 25.5395V22.0663H127.139L128.346 24.1772C129.458 26.1262 130.133 26.4747 132.546 26.4747H134.495L131.324 21.4379C133.263 20.893 134.193 19.9063 134.193 17.9598M127.232 19.516H123.16V16.7767H127.242C128.774 16.7767 129.679 17.0099 129.679 18.1218C129.679 19.2828 128.774 19.516 127.242 19.516M50.9612 20.6819V11.8455C50.9612 10.9937 49.707 10.7041 48.6098 10.7041C47.4684 10.7041 46.1699 10.9937 46.1699 11.8455V21.271C46.1699 23.3304 46.8425 24.7835 48.2072 25.569C49.842 26.5091 52.5052 26.487 56.2877 26.487H57.4536C59.4688 26.487 60.4752 25.3456 60.7427 23.733L60.7893 23.463H54.5645C51.6313 23.463 50.9612 22.6358 50.9612 20.6868M88.4278 19.2877L83.4647 13.9932H79.2919V25.5469C79.2919 26.3814 80.4063 26.6588 81.3562 26.6588C82.3061 26.6588 83.4229 26.3814 83.4229 25.5469V18.6103L88.4327 23.8287L93.4449 18.6103V25.569C93.4449 26.406 94.5348 26.6588 95.5338 26.6588C96.5328 26.6588 97.5735 26.4133 97.5735 25.569V13.9932H93.3885L88.4278 19.2877ZM108.032 13.6422C107.198 13.6422 106.069 13.8509 105.332 15.034L98.4179 26.4723H101.955L103.504 23.8729H111.461L112.998 26.4723H117.824L110.705 14.8032C110.055 13.7576 108.872 13.6422 108.037 13.6422M105.023 21.325L107.5 17.1842L109.954 21.3373L105.023 21.325ZM143.97 16.8921H150.001V13.9932H145.779C141.852 13.9932 140.258 14.0865 138.565 15.061C137.149 15.871 136.451 17.2701 136.451 19.3982V21.0697C136.451 23.2028 137.149 24.5945 138.565 25.407C140.258 26.3888 141.859 26.4747 145.779 26.4747H150.001V23.566H143.97C142.183 23.566 140.978 22.9647 140.978 20.9912V19.2288C140.978 17.4885 142.183 16.8847 143.97 16.8847" fill="#ED1A3B"/>
</g>
<defs>
<linearGradient id="paint0_linear_509_2666" x1="1.43075" y1="37.3959" x2="36.2166" y2="17.3123" gradientUnits="userSpaceOnUse">
<stop stop-color="#4394D0"/>
<stop offset="0.16" stop-color="#4394D0"/>
<stop offset="0.66" stop-color="#05509E"/>
<stop offset="1" stop-color="#05509E"/>
</linearGradient>
<linearGradient id="paint1_linear_509_2666" x1="0.496409" y1="4.6053" x2="35.2823" y2="24.6889" gradientUnits="userSpaceOnUse">
<stop stop-color="#EB1C3C"/>
<stop offset="0.15" stop-color="#E71D3E"/>
<stop offset="0.28" stop-color="#DD1F42"/>
<stop offset="0.41" stop-color="#CA234A"/>
<stop offset="0.54" stop-color="#B12955"/>
<stop offset="0.66" stop-color="#903163"/>
<stop offset="0.78" stop-color="#673A74"/>
<stop offset="0.89" stop-color="#384588"/>
<stop offset="1" stop-color="#05509E"/>
</linearGradient>
<linearGradient id="paint2_linear_509_2666" x1="6.90039" y1="40.3576" x2="6.90039" y2="0.190299" gradientUnits="userSpaceOnUse">
<stop stop-color="#F89820"/>
<stop offset="0.13" stop-color="#F78B23"/>
<stop offset="0.38" stop-color="#F3672B"/>
<stop offset="0.71" stop-color="#ED2F38"/>
<stop offset="0.82" stop-color="#EB1C3C"/>
<stop offset="1" stop-color="#EB1C3C"/>
</linearGradient>
<clipPath id="clip0_509_2666">
<rect width="150" height="40.1454" fill="white" transform="translate(0 0.163086)"/>
</clipPath>
</defs>
</svg>
